<svg width="157" height="18" viewBox="0 0 157 18" fill="none" xmlns="http://www.w3.org/2000/svg">
<path d="M6.93 13.216C5.658 13.216 4.566 12.946 3.654 12.406C2.742 11.854 2.04 11.092 1.548 10.12C1.056 9.136 0.81 8.002 0.81 6.718C0.81 5.434 1.056 4.3 1.548 3.316C2.04 2.332 2.742 1.564 3.654 1.012C4.566 0.46 5.658 0.184 6.93 0.184C8.442 0.184 9.678 0.562 10.638 1.318C11.61 2.062 12.216 3.112 12.456 4.468H9.918C9.762 3.784 9.426 3.25 8.91 2.866C8.406 2.47 7.734 2.272 6.894 2.272C5.73 2.272 4.818 2.668 4.158 3.46C3.498 4.252 3.168 5.338 3.168 6.718C3.168 8.098 3.498 9.184 4.158 9.976C4.818 10.756 5.73 11.146 6.894 11.146C7.734 11.146 8.406 10.966 8.91 10.606C9.426 10.234 9.762 9.724 9.918 9.076H12.456C12.216 10.372 11.61 11.386 10.638 12.118C9.678 12.85 8.442 13.216 6.93 13.216ZM19.2255 13.216C18.3615 13.216 17.5815 13.018 16.8855 12.622C16.2015 12.226 15.6555 11.68 15.2475 10.984C14.8515 10.276 14.6535 9.46 14.6535 8.536C14.6535 7.612 14.8575 6.802 15.2655 6.106C15.6735 5.398 16.2195 4.846 16.9035 4.45C17.5995 4.054 18.3795 3.856 19.2435 3.856C20.0955 3.856 20.8635 4.054 21.5475 4.45C22.2435 4.846 22.7895 5.398 23.1855 6.106C23.5935 6.802 23.7975 7.612 23.7975 8.536C23.7975 9.46 23.5935 10.276 23.1855 10.984C22.7895 11.68 22.2435 12.226 21.5475 12.622C20.8515 13.018 20.0775 13.216 19.2255 13.216ZM19.2255 11.218C19.8255 11.218 20.3475 10.996 20.7915 10.552C21.2355 10.096 21.4575 9.424 21.4575 8.536C21.4575 7.648 21.2355 6.982 20.7915 6.538C20.3475 6.082 19.8315 5.854 19.2435 5.854C18.6315 5.854 18.1035 6.082 17.6595 6.538C17.2275 6.982 17.0115 7.648 17.0115 8.536C17.0115 9.424 17.2275 10.096 17.6595 10.552C18.1035 10.996 18.6255 11.218 19.2255 11.218ZM26.3575 16.96V4.072H28.4095L28.6615 5.35C28.9495 4.954 29.3275 4.606 29.7955 4.306C30.2755 4.006 30.8935 3.856 31.6495 3.856C32.4895 3.856 33.2395 4.06 33.8995 4.468C34.5595 4.876 35.0815 5.434 35.4655 6.142C35.8495 6.85 36.0415 7.654 36.0415 8.554C36.0415 9.454 35.8495 10.258 35.4655 10.966C35.0815 11.662 34.5595 12.214 33.8995 12.622C33.2395 13.018 32.4895 13.216 31.6495 13.216C30.9775 13.216 30.3895 13.09 29.8855 12.838C29.3815 12.586 28.9735 12.232 28.6615 11.776V16.96H26.3575ZM31.1635 11.2C31.8955 11.2 32.5015 10.954 32.9815 10.462C33.4615 9.97 33.7015 9.334 33.7015 8.554C33.7015 7.774 33.4615 7.132 32.9815 6.628C32.5015 6.124 31.8955 5.872 31.1635 5.872C30.4195 5.872 29.8075 6.124 29.3275 6.628C28.8595 7.12 28.6255 7.756 28.6255 8.536C28.6255 9.316 28.8595 9.958 29.3275 10.462C29.8075 10.954 30.4195 11.2 31.1635 11.2ZM38.9071 16.96L40.9771 12.406H40.4371L36.9631 4.072H39.4651L41.9671 10.354L44.5771 4.072H47.0251L41.3551 16.96H38.9071ZM49.0313 13V4.072H51.0833L51.2993 5.746C51.6233 5.17 52.0613 4.714 52.6133 4.378C53.1773 4.03 53.8373 3.856 54.5933 3.856V6.286H53.9453C53.4413 6.286 52.9913 6.364 52.5953 6.52C52.1993 6.676 51.8873 6.946 51.6593 7.33C51.4433 7.714 51.3353 8.248 51.3353 8.932V13H49.0313ZM57.91 2.686C57.49 2.686 57.142 2.56 56.866 2.308C56.602 2.056 56.47 1.738 56.47 1.354C56.47 0.97 56.602 0.657999 56.866 0.417999C57.142 0.165999 57.49 0.0399995 57.91 0.0399995C58.33 0.0399995 58.672 0.165999 58.936 0.417999C59.212 0.657999 59.35 0.97 59.35 1.354C59.35 1.738 59.212 2.056 58.936 2.308C58.672 2.56 58.33 2.686 57.91 2.686ZM56.758 13V4.072H59.062V13H56.758ZM65.7469 10.336C65.3149 10.336 64.9129 10.288 64.5409 10.192L63.8749 10.858C64.0789 10.966 64.3549 11.056 64.7029 11.128C65.0509 11.2 65.6149 11.272 66.3949 11.344C67.5829 11.452 68.4469 11.734 68.9869 12.19C69.5269 12.646 69.7969 13.276 69.7969 14.08C69.7969 14.608 69.6529 15.106 69.3649 15.574C69.0769 16.054 68.6329 16.438 68.0329 16.726C67.4329 17.026 66.6649 17.176 65.7289 17.176C64.4569 17.176 63.4309 16.936 62.6509 16.456C61.8709 15.988 61.4809 15.28 61.4809 14.332C61.4809 13.528 61.8709 12.832 62.6509 12.244C62.4109 12.136 62.2009 12.022 62.0209 11.902C61.8529 11.782 61.7029 11.656 61.5709 11.524V11.11L63.1369 9.454C62.4409 8.842 62.0929 8.056 62.0929 7.096C62.0929 6.496 62.2369 5.95 62.5249 5.458C62.8249 4.966 63.2449 4.576 63.7849 4.288C64.3249 4 64.9789 3.856 65.7469 3.856C66.2509 3.856 66.7189 3.928 67.1509 4.072H70.5349V5.476L69.0049 5.584C69.2449 6.04 69.3649 6.544 69.3649 7.096C69.3649 7.696 69.2209 8.242 68.9329 8.734C68.6449 9.226 68.2249 9.616 67.6729 9.904C67.1329 10.192 66.4909 10.336 65.7469 10.336ZM65.7469 8.572C66.2149 8.572 66.5989 8.446 66.8989 8.194C67.2109 7.942 67.3669 7.582 67.3669 7.114C67.3669 6.646 67.2109 6.286 66.8989 6.034C66.5989 5.782 66.2149 5.656 65.7469 5.656C65.2549 5.656 64.8589 5.782 64.5589 6.034C64.2589 6.286 64.1089 6.646 64.1089 7.114C64.1089 7.582 64.2589 7.942 64.5589 8.194C64.8589 8.446 65.2549 8.572 65.7469 8.572ZM63.5869 14.098C63.5869 14.542 63.7909 14.872 64.1989 15.088C64.6189 15.316 65.1289 15.43 65.7289 15.43C66.3049 15.43 66.7729 15.31 67.1329 15.07C67.4929 14.842 67.6729 14.53 67.6729 14.134C67.6729 13.81 67.5529 13.54 67.3129 13.324C67.0849 13.108 66.6229 12.976 65.9269 12.928C65.4349 12.892 64.9789 12.838 64.5589 12.766C64.2109 12.958 63.9589 13.168 63.8029 13.396C63.6589 13.624 63.5869 13.858 63.5869 14.098ZM72.7149 13V0.0399995H75.0189V5.44C75.3189 4.948 75.7209 4.564 76.2249 4.288C76.7409 4 77.3289 3.856 77.9889 3.856C79.0929 3.856 79.9449 4.204 80.5449 4.9C81.1569 5.596 81.4629 6.616 81.4629 7.96V13H79.1769V8.176C79.1769 7.408 79.0209 6.82 78.7089 6.412C78.4089 6.004 77.9289 5.8 77.2689 5.8C76.6209 5.8 76.0809 6.028 75.6489 6.484C75.2289 6.94 75.0189 7.576 75.0189 8.392V13H72.7149ZM88.1441 13C87.2081 13 86.4581 12.772 85.8941 12.316C85.3301 11.86 85.0481 11.05 85.0481 9.886V5.998H83.5181V4.072H85.0481L85.3181 1.678H87.3521V4.072H89.7641V5.998H87.3521V9.904C87.3521 10.336 87.4421 10.636 87.6221 10.804C87.8141 10.96 88.1381 11.038 88.5941 11.038H89.7101V13H88.1441ZM102.935 13.108C101.699 13.108 100.607 12.832 99.6593 12.28C98.7233 11.728 97.9853 10.972 97.4453 10.012C96.9173 9.04 96.6533 7.924 96.6533 6.664C96.6533 5.416 96.9173 4.312 97.4453 3.352C97.9853 2.38 98.7233 1.624 99.6593 1.084C100.607 0.532 101.699 0.256 102.935 0.256C104.183 0.256 105.275 0.532 106.211 1.084C107.159 1.624 107.897 2.38 108.425 3.352C108.953 4.312 109.217 5.416 109.217 6.664C109.217 7.924 108.953 9.04 108.425 10.012C107.897 10.972 107.159 11.728 106.211 12.28C105.275 12.832 104.183 13.108 102.935 13.108ZM102.935 12.262C104.051 12.262 105.011 12.028 105.815 11.56C106.619 11.092 107.237 10.438 107.669 9.598C108.113 8.758 108.335 7.78 108.335 6.664C108.335 5.548 108.113 4.57 107.669 3.73C107.237 2.89 106.619 2.242 105.815 1.786C105.011 1.318 104.051 1.084 102.935 1.084C101.831 1.084 100.877 1.318 100.073 1.786C99.2693 2.242 98.6453 2.89 98.2013 3.73C97.7693 4.57 97.5533 5.548 97.5533 6.664C97.5533 7.78 97.7693 8.758 98.2013 9.598C98.6453 10.438 99.2693 11.092 100.073 11.56C100.877 12.028 101.831 12.262 102.935 12.262ZM102.953 10.786C102.209 10.786 101.537 10.624 100.937 10.3C100.337 9.964 99.8633 9.49 99.5153 8.878C99.1793 8.254 99.0113 7.516 99.0113 6.664C99.0113 5.812 99.1793 5.08 99.5153 4.468C99.8633 3.856 100.337 3.382 100.937 3.046C101.537 2.71 102.209 2.542 102.953 2.542C103.877 2.542 104.675 2.794 105.347 3.298C106.031 3.802 106.475 4.504 106.679 5.404H104.663C104.531 5.008 104.309 4.702 103.997 4.486C103.697 4.258 103.331 4.144 102.899 4.144C102.335 4.144 101.861 4.354 101.477 4.774C101.105 5.194 100.919 5.824 100.919 6.664C100.919 7.504 101.105 8.14 101.477 8.572C101.861 8.992 102.335 9.202 102.899 9.202C103.355 9.202 103.727 9.088 104.015 8.86C104.303 8.632 104.519 8.326 104.663 7.942H106.679C106.475 8.806 106.031 9.496 105.347 10.012C104.675 10.528 103.877 10.786 102.953 10.786ZM116.219 13V11.326C116.987 10.69 117.731 10.06 118.451 9.436C119.183 8.812 119.831 8.194 120.395 7.582C120.971 6.97 121.427 6.376 121.763 5.8C122.111 5.212 122.285 4.642 122.285 4.09C122.285 3.574 122.141 3.118 121.853 2.722C121.577 2.326 121.115 2.128 120.467 2.128C119.807 2.128 119.309 2.344 118.973 2.776C118.637 3.208 118.469 3.73 118.469 4.342H116.237C116.261 3.418 116.465 2.65 116.849 2.038C117.233 1.414 117.743 0.952 118.379 0.651999C119.015 0.34 119.729 0.184 120.521 0.184C121.805 0.184 122.801 0.538 123.509 1.246C124.229 1.942 124.589 2.848 124.589 3.964C124.589 4.66 124.427 5.338 124.103 5.998C123.791 6.658 123.377 7.294 122.861 7.906C122.345 8.518 121.787 9.094 121.187 9.634C120.587 10.162 120.005 10.654 119.441 11.11H124.895V13H116.219ZM132.386 13.216C131.222 13.216 130.226 12.946 129.398 12.406C128.57 11.854 127.928 11.092 127.472 10.12C127.028 9.136 126.806 7.996 126.806 6.7C126.806 5.416 127.028 4.282 127.472 3.298C127.928 2.314 128.57 1.552 129.398 1.012C130.226 0.46 131.222 0.184 132.386 0.184C133.55 0.184 134.546 0.46 135.374 1.012C136.202 1.552 136.838 2.314 137.282 3.298C137.738 4.282 137.966 5.416 137.966 6.7C137.966 7.996 137.738 9.136 137.282 10.12C136.838 11.092 136.202 11.854 135.374 12.406C134.546 12.946 133.55 13.216 132.386 13.216ZM132.386 11.146C133.334 11.146 134.108 10.75 134.708 9.958C135.308 9.166 135.608 8.08 135.608 6.7C135.608 5.32 135.308 4.234 134.708 3.442C134.108 2.65 133.334 2.254 132.386 2.254C131.426 2.254 130.646 2.65 130.046 3.442C129.458 4.234 129.164 5.32 129.164 6.7C129.164 8.08 129.458 9.166 130.046 9.958C130.646 10.75 131.426 11.146 132.386 11.146ZM141.867 13V3.028L139.797 3.514V1.75L142.839 0.399999H144.261V13H141.867ZM151.506 13.216C150.63 13.216 149.892 13.048 149.292 12.712C148.692 12.364 148.224 11.914 147.888 11.362C147.552 10.81 147.354 10.216 147.294 9.58H149.436C149.532 10.132 149.76 10.558 150.12 10.858C150.492 11.158 150.96 11.308 151.524 11.308C152.328 11.308 152.976 10.942 153.468 10.21C153.96 9.466 154.224 8.338 154.26 6.826C153.972 7.318 153.534 7.726 152.946 8.05C152.37 8.374 151.734 8.536 151.038 8.536C150.342 8.536 149.688 8.368 149.076 8.032C148.464 7.696 147.966 7.222 147.582 6.61C147.198 5.998 147.006 5.278 147.006 4.45C147.006 3.694 147.192 2.992 147.564 2.344C147.936 1.696 148.452 1.174 149.112 0.778C149.772 0.382 150.546 0.184 151.434 0.184C152.382 0.184 153.18 0.358 153.828 0.705999C154.476 1.054 154.992 1.522 155.376 2.11C155.772 2.698 156.054 3.352 156.222 4.072C156.402 4.792 156.492 5.53 156.492 6.286C156.492 7.69 156.294 8.914 155.898 9.958C155.514 10.99 154.944 11.794 154.188 12.37C153.444 12.934 152.55 13.216 151.506 13.216ZM151.578 6.592C152.022 6.592 152.424 6.496 152.784 6.304C153.144 6.1 153.426 5.836 153.63 5.512C153.834 5.176 153.936 4.804 153.936 4.396C153.936 3.748 153.708 3.214 153.252 2.794C152.808 2.374 152.244 2.164 151.56 2.164C150.888 2.164 150.33 2.374 149.886 2.794C149.442 3.202 149.22 3.724 149.22 4.36C149.22 5.032 149.442 5.572 149.886 5.98C150.33 6.388 150.894 6.592 151.578 6.592Z" fill="white"/>
</svg>
