<svg width="240" height="69" viewBox="0 0 240 69" fill="none" xmlns="http://www.w3.org/2000/svg">
<g clip-path="url(#clip0_12_352)">
<path d="M47.6747 15.3703V7.68644C47.6747 6.83777 46.7854 6.14968 45.6883 6.14968H43.7019V1.53938C43.7019 0.690705 42.8126 0.00261864 41.7155 0.00261864C38.9033 0.00261864 34.5966 -0.16412 29.541 2.17906C26.3983 1.45534 24.1757 1.53938 21.8517 1.53938C20.7546 1.53938 19.8653 2.22747 19.8653 3.07615V6.14968H17.879C16.7819 6.14968 15.8926 6.83777 15.8926 7.68644V15.3703C15.8926 21.6289 21.969 26.8099 29.7972 27.5685V47.6423C29.7972 48.491 30.6865 49.1791 31.7836 49.1791C32.8807 49.1791 33.77 48.491 33.77 47.6423V42.2637H36.7496C42.7737 42.2637 47.6747 38.472 47.6747 33.8114V31.5063C47.6747 30.6576 46.7854 29.9695 45.6883 29.9695H40.7223C38.0836 29.9695 35.6603 30.6971 33.77 31.9065V27.5678C41.5865 26.8189 47.6747 21.6636 47.6747 15.3703V15.3703ZM43.7019 15.3703C43.7019 18.1052 42.1385 20.5754 39.6676 22.269C39.7066 22.0224 39.7292 21.7719 39.7292 21.5173C39.7292 17.6256 37.8486 14.0678 34.7548 11.3573C37.3777 9.97267 40.4875 9.22321 43.7019 9.22321V15.3703ZM39.7292 3.07615V6.45972C39.362 6.51754 38.9975 6.58353 38.636 6.65719C37.3474 5.54122 35.8777 4.59044 34.2731 3.82215C36.0075 3.33154 37.8488 3.07615 39.7292 3.07615V3.07615ZM23.8381 4.61291C27.7844 4.61291 31.6168 5.72774 34.5972 7.85779C33.6136 8.25053 32.6704 8.70839 31.7778 9.22753C29.4683 7.88421 26.7696 6.92085 23.8381 6.45866V4.61291ZM19.8653 15.3703V9.22321C28.6276 9.22321 35.7564 14.7383 35.7564 21.5173C35.7564 23.2347 33.9233 24.634 31.6792 24.5894C24.7008 24.4561 19.8653 20.1668 19.8653 15.3703ZM40.7223 33.0431H43.7019V33.8114C43.7019 36.7772 40.5832 39.1901 36.7496 39.1901H33.77V38.4217C33.77 35.456 36.8889 33.0431 40.7223 33.0431Z" fill="white"/>
</g>
<path d="M68.8052 26.885V30.0438H59.7264V26.885H68.8052ZM61.1889 13.0093V30.0438H57.0823V13.0093H61.1889ZM67.6353 19.7717V22.8252H59.7264V19.7717H67.6353ZM68.8403 13.0093V16.1799H59.7264V13.0093H68.8403ZM74.3736 13.0093L77.1581 18.6719L79.9426 13.0093H84.6224L79.8724 21.4564L84.7511 30.0438H80.0245L77.1581 24.276L74.2917 30.0438H69.5534L74.4438 21.4564L69.6821 13.0093H74.3736ZM93.2209 24.2643H88.9857V21.0937H93.2209C93.7981 21.0937 94.266 20.9962 94.6248 20.8012C94.9836 20.6062 95.2449 20.3371 95.4087 19.9939C95.5803 19.643 95.6661 19.2491 95.6661 18.8123C95.6661 18.3443 95.5803 17.9114 95.4087 17.5137C95.2449 17.1159 94.9836 16.7961 94.6248 16.5543C94.266 16.3047 93.7981 16.1799 93.2209 16.1799H90.53V30.0438H86.4235V13.0093H93.2209C94.5858 13.0093 95.7597 13.2589 96.7424 13.7581C97.733 14.2573 98.4935 14.9437 99.0238 15.8172C99.5542 16.683 99.8194 17.6735 99.8194 18.7889C99.8194 19.8887 99.5542 20.848 99.0238 21.667C98.4935 22.4859 97.733 23.1255 96.7424 23.5857C95.7597 24.0381 94.5858 24.2643 93.2209 24.2643ZM113.601 26.885V30.0438H104.99V26.885H113.601ZM106.452 13.0093V30.0438H102.346V13.0093H106.452ZM129.313 21.1873V21.8776C129.313 23.1801 129.129 24.3501 128.763 25.3874C128.404 26.417 127.893 27.2983 127.23 28.0315C126.567 28.7569 125.783 29.3146 124.879 29.7045C123.974 30.0867 122.975 30.2778 121.883 30.2778C120.784 30.2778 119.778 30.0867 118.865 29.7045C117.96 29.3146 117.172 28.7569 116.502 28.0315C115.839 27.2983 115.324 26.417 114.957 25.3874C114.599 24.3501 114.419 23.1801 114.419 21.8776V21.1873C114.419 19.8848 114.599 18.7148 114.957 17.6774C115.324 16.6401 115.835 15.7587 116.49 15.0334C117.153 14.3002 117.937 13.7425 118.842 13.3603C119.754 12.9703 120.76 12.7754 121.86 12.7754C122.952 12.7754 123.95 12.9703 124.855 13.3603C125.768 13.7425 126.555 14.3002 127.218 15.0334C127.881 15.7587 128.396 16.6401 128.763 17.6774C129.129 18.7148 129.313 19.8848 129.313 21.1873ZM125.148 21.8776V21.1639C125.148 20.3215 125.074 19.5806 124.925 18.941C124.785 18.2936 124.574 17.7515 124.294 17.3148C124.013 16.878 123.666 16.5504 123.252 16.332C122.847 16.1058 122.383 15.9927 121.86 15.9927C121.314 15.9927 120.838 16.1058 120.433 16.332C120.027 16.5504 119.688 16.878 119.415 17.3148C119.142 17.7515 118.935 18.2936 118.795 18.941C118.662 19.5806 118.596 20.3215 118.596 21.1639V21.8776C118.596 22.7121 118.662 23.4531 118.795 24.1005C118.935 24.74 119.142 25.2821 119.415 25.7267C119.696 26.1713 120.039 26.5067 120.444 26.7329C120.858 26.9591 121.337 27.0721 121.883 27.0721C122.406 27.0721 122.87 26.9591 123.276 26.7329C123.681 26.5067 124.021 26.1713 124.294 25.7267C124.574 25.2821 124.785 24.74 124.925 24.1005C125.074 23.4531 125.148 22.7121 125.148 21.8776ZM131.757 13.0093H138.461C139.771 13.0093 140.91 13.2043 141.877 13.5943C142.844 13.9843 143.589 14.5615 144.112 15.3258C144.642 16.0902 144.907 17.034 144.907 18.1571C144.907 19.1321 144.755 19.9471 144.451 20.6023C144.147 21.2575 143.722 21.7996 143.176 22.2286C142.638 22.6497 142.01 22.9968 141.292 23.2698L139.947 24.0303H134.319L134.296 20.8597H138.461C138.984 20.8597 139.416 20.7661 139.76 20.5789C140.103 20.3917 140.36 20.1265 140.532 19.7834C140.711 19.4324 140.801 19.0151 140.801 18.5315C140.801 18.0401 140.711 17.6189 140.532 17.268C140.352 16.917 140.087 16.6479 139.736 16.4607C139.393 16.2735 138.968 16.1799 138.461 16.1799H135.864V30.0438H131.757V13.0093ZM141.082 30.0438L137.314 22.5093L141.667 22.4859L145.481 29.8683V30.0438H141.082ZM159.426 26.885V30.0438H150.347V26.885H159.426ZM151.81 13.0093V30.0438H147.703V13.0093H151.81ZM158.256 19.7717V22.8252H150.347V19.7717H158.256ZM159.461 13.0093V16.1799H150.347V13.0093H159.461ZM61.4463 32.0093V49.0438H57.3514V32.0093H61.4463ZM78.8779 32.0093V49.0438H74.7831L68.7578 38.4441V49.0438H64.6513V32.0093H68.7578L74.7831 42.6091V32.0093H78.8779ZM87.3243 49.0438H83.5454L83.5688 45.885H87.3243C88.1043 45.885 88.7634 45.6978 89.3015 45.3234C89.8475 44.949 90.2609 44.3913 90.5417 43.6504C90.8303 42.9016 90.9746 41.9812 90.9746 40.8893V40.1522C90.9746 39.3332 90.8927 38.6157 90.7289 37.9995C90.5729 37.3755 90.3389 36.8568 90.0269 36.4435C89.7149 36.0223 89.3249 35.7064 88.857 35.4958C88.3968 35.2852 87.8664 35.1799 87.2658 35.1799H83.4752V32.0093H87.2658C88.4202 32.0093 89.477 32.2082 90.4364 32.606C91.4036 32.996 92.2381 33.5576 92.9401 34.2907C93.6499 35.0161 94.1958 35.878 94.578 36.8763C94.968 37.8669 95.163 38.9666 95.163 40.1756V40.8893C95.163 42.0904 94.968 43.1902 94.578 44.1885C94.1958 45.1869 93.6538 46.0487 92.9518 46.7741C92.2498 47.4995 91.4192 48.0611 90.4598 48.4588C89.5082 48.8488 88.4631 49.0438 87.3243 49.0438ZM85.897 32.0093V49.0438H81.7905V32.0093H85.897ZM112.033 40.1873V40.8776C112.033 42.1801 111.85 43.3501 111.483 44.3874C111.124 45.417 110.614 46.2983 109.951 47.0315C109.288 47.7569 108.504 48.3146 107.599 48.7045C106.694 49.0867 105.696 49.2778 104.604 49.2778C103.504 49.2778 102.498 49.0867 101.585 48.7045C100.681 48.3146 99.8929 47.7569 99.2221 47.0315C98.5591 46.2983 98.0444 45.417 97.6778 44.3874C97.319 43.3501 97.1396 42.1801 97.1396 40.8776V40.1873C97.1396 38.8848 97.319 37.7148 97.6778 36.6774C98.0444 35.6401 98.5552 34.7587 99.2104 34.0334C99.8734 33.3002 100.657 32.7425 101.562 32.3603C102.475 31.9703 103.481 31.7754 104.58 31.7754C105.672 31.7754 106.671 31.9703 107.576 32.3603C108.488 32.7425 109.276 33.3002 109.939 34.0334C110.602 34.7587 111.117 35.6401 111.483 36.6774C111.85 37.7148 112.033 38.8848 112.033 40.1873ZM107.868 40.8776V40.1639C107.868 39.3215 107.794 38.5806 107.646 37.941C107.505 37.2936 107.295 36.7515 107.014 36.3148C106.733 35.878 106.386 35.5504 105.973 35.332C105.567 35.1058 105.103 34.9927 104.58 34.9927C104.035 34.9927 103.559 35.1058 103.153 35.332C102.748 35.5504 102.408 35.878 102.135 36.3148C101.862 36.7515 101.656 37.2936 101.515 37.941C101.383 38.5806 101.316 39.3215 101.316 40.1639V40.8776C101.316 41.7121 101.383 42.4531 101.515 43.1005C101.656 43.74 101.862 44.2821 102.135 44.7267C102.416 45.1713 102.759 45.5067 103.165 45.7329C103.578 45.9591 104.058 46.0721 104.604 46.0721C105.126 46.0721 105.591 45.9591 105.996 45.7329C106.402 45.5067 106.741 45.1713 107.014 44.7267C107.295 44.2821 107.505 43.74 107.646 43.1005C107.794 42.4531 107.868 41.7121 107.868 40.8776ZM128.704 32.0093V49.0438H124.609L118.584 38.4441V49.0438H114.478V32.0093H118.584L124.609 42.6091V32.0093H128.704ZM143.34 45.885V49.0438H134.261V45.885H143.34ZM135.723 32.0093V49.0438H131.617V32.0093H135.723ZM142.17 38.7717V41.8252H134.261V38.7717H142.17ZM143.375 32.0093V35.1799H134.261V32.0093H143.375ZM154.114 44.5161C154.114 44.2509 154.075 44.013 153.997 43.8024C153.919 43.5841 153.775 43.3813 153.564 43.1941C153.354 43.0069 153.05 42.8197 152.652 42.6325C152.262 42.4375 151.747 42.2347 151.108 42.0241C150.359 41.7745 149.637 41.4937 148.943 41.1818C148.249 40.862 147.629 40.4915 147.083 40.0703C146.537 39.6413 146.104 39.1421 145.784 38.5728C145.465 37.9956 145.305 37.3248 145.305 36.5604C145.305 35.8273 145.468 35.1682 145.796 34.5832C146.124 33.9905 146.58 33.4874 147.165 33.074C147.758 32.6528 148.452 32.333 149.247 32.1146C150.043 31.8884 150.913 31.7754 151.856 31.7754C153.104 31.7754 154.204 31.9937 155.156 32.4305C156.115 32.8595 156.864 33.4718 157.402 34.2673C157.948 35.0551 158.221 35.9872 158.221 37.0635H154.138C154.138 36.6345 154.048 36.2563 153.869 35.9287C153.697 35.6011 153.436 35.3437 153.085 35.1565C152.734 34.9693 152.293 34.8757 151.763 34.8757C151.248 34.8757 150.815 34.9537 150.464 35.1097C150.113 35.2657 149.848 35.4763 149.669 35.7415C149.489 35.9989 149.399 36.2836 149.399 36.5955C149.399 36.8529 149.47 37.0869 149.61 37.2975C149.758 37.5003 149.965 37.6914 150.23 37.8708C150.503 38.0502 150.831 38.2218 151.213 38.3856C151.603 38.5494 152.04 38.7093 152.523 38.8653C153.428 39.1538 154.231 39.4775 154.933 39.8363C155.643 40.1873 156.24 40.589 156.723 41.0414C157.215 41.4859 157.585 41.9929 157.835 42.5623C158.092 43.1317 158.221 43.7751 158.221 44.4927C158.221 45.2571 158.073 45.9357 157.776 46.5284C157.48 47.1212 157.055 47.6243 156.501 48.0377C155.947 48.4432 155.284 48.7513 154.512 48.9619C153.74 49.1725 152.878 49.2778 151.927 49.2778C151.053 49.2778 150.191 49.1686 149.341 48.9502C148.499 48.724 147.734 48.3809 147.048 47.9207C146.361 47.4527 145.812 46.856 145.398 46.1306C144.993 45.3975 144.79 44.5278 144.79 43.5217H148.908C148.908 44.0208 148.974 44.442 149.107 44.7852C149.24 45.1284 149.435 45.4053 149.692 45.6159C149.949 45.8187 150.265 45.9669 150.64 46.0604C151.014 46.1462 151.443 46.1891 151.927 46.1891C152.449 46.1891 152.87 46.115 153.19 45.9669C153.51 45.8109 153.744 45.6081 153.892 45.3585C154.04 45.1011 154.114 44.8203 154.114 44.5161ZM165.018 32.0093V49.0438H160.923V32.0093H165.018ZM175.652 35.5894L171.499 49.0438H167.088L173.347 32.0093H176.143L175.652 35.5894ZM179.092 49.0438L174.927 35.5894L174.388 32.0093H177.22L183.514 49.0438H179.092ZM178.928 42.691V45.8616H170.188V42.691H178.928Z" fill="white"/>
<defs>
<clipPath id="clip0_12_352">
<rect width="63.5676" height="49.1791" fill="white"/>
</clipPath>
</defs>
</svg>
