<svg width="25" height="52" viewBox="0 0 25 52" fill="none" xmlns="http://www.w3.org/2000/svg">
<path d="M24.7685 16.0385V8.0206C24.7685 7.13503 24.0827 6.41702 23.2366 6.41702H21.7046V1.60628C21.7046 0.720704 21.0188 0.00270065 20.1726 0.00270065C18.0038 0.00270065 14.6823 -0.171288 10.7832 2.27377C8.35946 1.51859 6.64528 1.60628 4.85298 1.60628C4.00686 1.60628 3.32101 2.32428 3.32101 3.20986V6.41702H1.78905C0.942922 6.41702 0.25708 7.13503 0.25708 8.0206V16.0385C0.25708 22.5693 4.94346 27.9756 10.9808 28.7671V49.7137C10.9808 50.5993 11.6667 51.3173 12.5128 51.3173C13.3589 51.3173 14.0448 50.5993 14.0448 49.7137V44.1012H16.3427C20.9887 44.1012 24.7685 40.1446 24.7685 35.2815V32.8761C24.7685 31.9905 24.0827 31.2725 23.2366 31.2725H19.4067C17.3715 31.2725 15.5026 32.0317 14.0448 33.2937V28.7663C20.0732 27.9849 24.7685 22.6055 24.7685 16.0385V16.0385ZM21.7046 16.0385C21.7046 18.8924 20.4989 21.4699 18.5932 23.2372C18.6233 22.9799 18.6407 22.7185 18.6407 22.4528C18.6407 18.3919 17.1903 14.6794 14.8043 11.8511C16.8271 10.4062 19.2255 9.62418 21.7046 9.62418V16.0385ZM18.6407 3.20986V6.74055C18.3576 6.80088 18.0764 6.86973 17.7976 6.94661C16.8038 5.78211 15.6703 4.78999 14.4327 3.9883C15.7704 3.47636 17.1905 3.20986 18.6407 3.20986V3.20986ZM6.38495 4.81344C9.42848 4.81344 12.3841 5.97674 14.6827 8.1994C13.9241 8.60922 13.1967 9.08698 12.5083 9.62869C10.7271 8.22696 8.64584 7.22172 6.38495 6.73944V4.81344ZM3.32101 16.0385V9.62418C10.0788 9.62418 15.5767 15.379 15.5767 22.4528C15.5767 24.2448 14.163 25.705 12.4323 25.6585C7.0503 25.5194 3.32101 21.0436 3.32101 16.0385ZM19.4067 34.4797H21.7046V35.2815C21.7046 38.3762 19.2993 40.894 16.3427 40.894H14.0448V40.0922C14.0448 36.9975 16.4502 34.4797 19.4067 34.4797Z" fill="white"/>
</svg>
