<?xml version="1.0" encoding="utf-8"?><svg xmlns="http://www.w3.org/2000/svg" xmlns:xlink="http://www.w3.org/1999/xlink"><symbol viewBox="0 0 39 22" id="Union" xmlns="http://www.w3.org/2000/svg"><path fill-rule="evenodd" clip-rule="evenodd" d="M37.292 16.6276C38.3222 17.6577 38.3222 19.328 37.292 20.3581C36.2618 21.3883 34.5916 21.3883 33.5614 20.3581L19.1386 5.9353L4.5032 20.5707C3.47303 21.6008 1.8028 21.6008 0.772627 20.5707C-0.257543 19.5405 -0.257542 17.8703 0.772628 16.8401L16.6276 0.985154C17.1526 0.460123 17.8439 0.202677 18.532 0.212815C19.4942 -0.199392 20.6516 -0.0127879 21.437 0.772628L37.292 16.6276Z"/></symbol><symbol viewBox="0 0 157 18" id="copyright" xmlns="http://www.w3.org/2000/svg"><path d="M6.93 13.216C5.658 13.216 4.566 12.946 3.654 12.406C2.742 11.854 2.04 11.092 1.548 10.12C1.056 9.136 0.81 8.002 0.81 6.718C0.81 5.434 1.056 4.3 1.548 3.316C2.04 2.332 2.742 1.564 3.654 1.012C4.566 0.46 5.658 0.184 6.93 0.184C8.442 0.184 9.678 0.562 10.638 1.318C11.61 2.062 12.216 3.112 12.456 4.468H9.918C9.762 3.784 9.426 3.25 8.91 2.866C8.406 2.47 7.734 2.272 6.894 2.272C5.73 2.272 4.818 2.668 4.158 3.46C3.498 4.252 3.168 5.338 3.168 6.718C3.168 8.098 3.498 9.184 4.158 9.976C4.818 10.756 5.73 11.146 6.894 11.146C7.734 11.146 8.406 10.966 8.91 10.606C9.426 10.234 9.762 9.724 9.918 9.076H12.456C12.216 10.372 11.61 11.386 10.638 12.118C9.678 12.85 8.442 13.216 6.93 13.216ZM19.2255 13.216C18.3615 13.216 17.5815 13.018 16.8855 12.622C16.2015 12.226 15.6555 11.68 15.2475 10.984C14.8515 10.276 14.6535 9.46 14.6535 8.536C14.6535 7.612 14.8575 6.802 15.2655 6.106C15.6735 5.398 16.2195 4.846 16.9035 4.45C17.5995 4.054 18.3795 3.856 19.2435 3.856C20.0955 3.856 20.8635 4.054 21.5475 4.45C22.2435 4.846 22.7895 5.398 23.1855 6.106C23.5935 6.802 23.7975 7.612 23.7975 8.536C23.7975 9.46 23.5935 10.276 23.1855 10.984C22.7895 11.68 22.2435 12.226 21.5475 12.622C20.8515 13.018 20.0775 13.216 19.2255 13.216ZM19.2255 11.218C19.8255 11.218 20.3475 10.996 20.7915 10.552C21.2355 10.096 21.4575 9.424 21.4575 8.536C21.4575 7.648 21.2355 6.982 20.7915 6.538C20.3475 6.082 19.8315 5.854 19.2435 5.854C18.6315 5.854 18.1035 6.082 17.6595 6.538C17.2275 6.982 17.0115 7.648 17.0115 8.536C17.0115 9.424 17.2275 10.096 17.6595 10.552C18.1035 10.996 18.6255 11.218 19.2255 11.218ZM26.3575 16.96V4.072H28.4095L28.6615 5.35C28.9495 4.954 29.3275 4.606 29.7955 4.306C30.2755 4.006 30.8935 3.856 31.6495 3.856C32.4895 3.856 33.2395 4.06 33.8995 4.468C34.5595 4.876 35.0815 5.434 35.4655 6.142C35.8495 6.85 36.0415 7.654 36.0415 8.554C36.0415 9.454 35.8495 10.258 35.4655 10.966C35.0815 11.662 34.5595 12.214 33.8995 12.622C33.2395 13.018 32.4895 13.216 31.6495 13.216C30.9775 13.216 30.3895 13.09 29.8855 12.838C29.3815 12.586 28.9735 12.232 28.6615 11.776V16.96H26.3575ZM31.1635 11.2C31.8955 11.2 32.5015 10.954 32.9815 10.462C33.4615 9.97 33.7015 9.334 33.7015 8.554C33.7015 7.774 33.4615 7.132 32.9815 6.628C32.5015 6.124 31.8955 5.872 31.1635 5.872C30.4195 5.872 29.8075 6.124 29.3275 6.628C28.8595 7.12 28.6255 7.756 28.6255 8.536C28.6255 9.316 28.8595 9.958 29.3275 10.462C29.8075 10.954 30.4195 11.2 31.1635 11.2ZM38.9071 16.96L40.9771 12.406H40.4371L36.9631 4.072H39.4651L41.9671 10.354L44.5771 4.072H47.0251L41.3551 16.96H38.9071ZM49.0313 13V4.072H51.0833L51.2993 5.746C51.6233 5.17 52.0613 4.714 52.6133 4.378C53.1773 4.03 53.8373 3.856 54.5933 3.856V6.286H53.9453C53.4413 6.286 52.9913 6.364 52.5953 6.52C52.1993 6.676 51.8873 6.946 51.6593 7.33C51.4433 7.714 51.3353 8.248 51.3353 8.932V13H49.0313ZM57.91 2.686C57.49 2.686 57.142 2.56 56.866 2.308C56.602 2.056 56.47 1.738 56.47 1.354C56.47 0.97 56.602 0.657999 56.866 0.417999C57.142 0.165999 57.49 0.0399995 57.91 0.0399995C58.33 0.0399995 58.672 0.165999 58.936 0.417999C59.212 0.657999 59.35 0.97 59.35 1.354C59.35 1.738 59.212 2.056 58.936 2.308C58.672 2.56 58.33 2.686 57.91 2.686ZM56.758 13V4.072H59.062V13H56.758ZM65.7469 10.336C65.3149 10.336 64.9129 10.288 64.5409 10.192L63.8749 10.858C64.0789 10.966 64.3549 11.056 64.7029 11.128C65.0509 11.2 65.6149 11.272 66.3949 11.344C67.5829 11.452 68.4469 11.734 68.9869 12.19C69.5269 12.646 69.7969 13.276 69.7969 14.08C69.7969 14.608 69.6529 15.106 69.3649 15.574C69.0769 16.054 68.6329 16.438 68.0329 16.726C67.4329 17.026 66.6649 17.176 65.7289 17.176C64.4569 17.176 63.4309 16.936 62.6509 16.456C61.8709 15.988 61.4809 15.28 61.4809 14.332C61.4809 13.528 61.8709 12.832 62.6509 12.244C62.4109 12.136 62.2009 12.022 62.0209 11.902C61.8529 11.782 61.7029 11.656 61.5709 11.524V11.11L63.1369 9.454C62.4409 8.842 62.0929 8.056 62.0929 7.096C62.0929 6.496 62.2369 5.95 62.5249 5.458C62.8249 4.966 63.2449 4.576 63.7849 4.288C64.3249 4 64.9789 3.856 65.7469 3.856C66.2509 3.856 66.7189 3.928 67.1509 4.072H70.5349V5.476L69.0049 5.584C69.2449 6.04 69.3649 6.544 69.3649 7.096C69.3649 7.696 69.2209 8.242 68.9329 8.734C68.6449 9.226 68.2249 9.616 67.6729 9.904C67.1329 10.192 66.4909 10.336 65.7469 10.336ZM65.7469 8.572C66.2149 8.572 66.5989 8.446 66.8989 8.194C67.2109 7.942 67.3669 7.582 67.3669 7.114C67.3669 6.646 67.2109 6.286 66.8989 6.034C66.5989 5.782 66.2149 5.656 65.7469 5.656C65.2549 5.656 64.8589 5.782 64.5589 6.034C64.2589 6.286 64.1089 6.646 64.1089 7.114C64.1089 7.582 64.2589 7.942 64.5589 8.194C64.8589 8.446 65.2549 8.572 65.7469 8.572ZM63.5869 14.098C63.5869 14.542 63.7909 14.872 64.1989 15.088C64.6189 15.316 65.1289 15.43 65.7289 15.43C66.3049 15.43 66.7729 15.31 67.1329 15.07C67.4929 14.842 67.6729 14.53 67.6729 14.134C67.6729 13.81 67.5529 13.54 67.3129 13.324C67.0849 13.108 66.6229 12.976 65.9269 12.928C65.4349 12.892 64.9789 12.838 64.5589 12.766C64.2109 12.958 63.9589 13.168 63.8029 13.396C63.6589 13.624 63.5869 13.858 63.5869 14.098ZM72.7149 13V0.0399995H75.0189V5.44C75.3189 4.948 75.7209 4.564 76.2249 4.288C76.7409 4 77.3289 3.856 77.9889 3.856C79.0929 3.856 79.9449 4.204 80.5449 4.9C81.1569 5.596 81.4629 6.616 81.4629 7.96V13H79.1769V8.176C79.1769 7.408 79.0209 6.82 78.7089 6.412C78.4089 6.004 77.9289 5.8 77.2689 5.8C76.6209 5.8 76.0809 6.028 75.6489 6.484C75.2289 6.94 75.0189 7.576 75.0189 8.392V13H72.7149ZM88.1441 13C87.2081 13 86.4581 12.772 85.8941 12.316C85.3301 11.86 85.0481 11.05 85.0481 9.886V5.998H83.5181V4.072H85.0481L85.3181 1.678H87.3521V4.072H89.7641V5.998H87.3521V9.904C87.3521 10.336 87.4421 10.636 87.6221 10.804C87.8141 10.96 88.1381 11.038 88.5941 11.038H89.7101V13H88.1441ZM102.935 13.108C101.699 13.108 100.607 12.832 99.6593 12.28C98.7233 11.728 97.9853 10.972 97.4453 10.012C96.9173 9.04 96.6533 7.924 96.6533 6.664C96.6533 5.416 96.9173 4.312 97.4453 3.352C97.9853 2.38 98.7233 1.624 99.6593 1.084C100.607 0.532 101.699 0.256 102.935 0.256C104.183 0.256 105.275 0.532 106.211 1.084C107.159 1.624 107.897 2.38 108.425 3.352C108.953 4.312 109.217 5.416 109.217 6.664C109.217 7.924 108.953 9.04 108.425 10.012C107.897 10.972 107.159 11.728 106.211 12.28C105.275 12.832 104.183 13.108 102.935 13.108ZM102.935 12.262C104.051 12.262 105.011 12.028 105.815 11.56C106.619 11.092 107.237 10.438 107.669 9.598C108.113 8.758 108.335 7.78 108.335 6.664C108.335 5.548 108.113 4.57 107.669 3.73C107.237 2.89 106.619 2.242 105.815 1.786C105.011 1.318 104.051 1.084 102.935 1.084C101.831 1.084 100.877 1.318 100.073 1.786C99.2693 2.242 98.6453 2.89 98.2013 3.73C97.7693 4.57 97.5533 5.548 97.5533 6.664C97.5533 7.78 97.7693 8.758 98.2013 9.598C98.6453 10.438 99.2693 11.092 100.073 11.56C100.877 12.028 101.831 12.262 102.935 12.262ZM102.953 10.786C102.209 10.786 101.537 10.624 100.937 10.3C100.337 9.964 99.8633 9.49 99.5153 8.878C99.1793 8.254 99.0113 7.516 99.0113 6.664C99.0113 5.812 99.1793 5.08 99.5153 4.468C99.8633 3.856 100.337 3.382 100.937 3.046C101.537 2.71 102.209 2.542 102.953 2.542C103.877 2.542 104.675 2.794 105.347 3.298C106.031 3.802 106.475 4.504 106.679 5.404H104.663C104.531 5.008 104.309 4.702 103.997 4.486C103.697 4.258 103.331 4.144 102.899 4.144C102.335 4.144 101.861 4.354 101.477 4.774C101.105 5.194 100.919 5.824 100.919 6.664C100.919 7.504 101.105 8.14 101.477 8.572C101.861 8.992 102.335 9.202 102.899 9.202C103.355 9.202 103.727 9.088 104.015 8.86C104.303 8.632 104.519 8.326 104.663 7.942H106.679C106.475 8.806 106.031 9.496 105.347 10.012C104.675 10.528 103.877 10.786 102.953 10.786ZM116.219 13V11.326C116.987 10.69 117.731 10.06 118.451 9.436C119.183 8.812 119.831 8.194 120.395 7.582C120.971 6.97 121.427 6.376 121.763 5.8C122.111 5.212 122.285 4.642 122.285 4.09C122.285 3.574 122.141 3.118 121.853 2.722C121.577 2.326 121.115 2.128 120.467 2.128C119.807 2.128 119.309 2.344 118.973 2.776C118.637 3.208 118.469 3.73 118.469 4.342H116.237C116.261 3.418 116.465 2.65 116.849 2.038C117.233 1.414 117.743 0.952 118.379 0.651999C119.015 0.34 119.729 0.184 120.521 0.184C121.805 0.184 122.801 0.538 123.509 1.246C124.229 1.942 124.589 2.848 124.589 3.964C124.589 4.66 124.427 5.338 124.103 5.998C123.791 6.658 123.377 7.294 122.861 7.906C122.345 8.518 121.787 9.094 121.187 9.634C120.587 10.162 120.005 10.654 119.441 11.11H124.895V13H116.219ZM132.386 13.216C131.222 13.216 130.226 12.946 129.398 12.406C128.57 11.854 127.928 11.092 127.472 10.12C127.028 9.136 126.806 7.996 126.806 6.7C126.806 5.416 127.028 4.282 127.472 3.298C127.928 2.314 128.57 1.552 129.398 1.012C130.226 0.46 131.222 0.184 132.386 0.184C133.55 0.184 134.546 0.46 135.374 1.012C136.202 1.552 136.838 2.314 137.282 3.298C137.738 4.282 137.966 5.416 137.966 6.7C137.966 7.996 137.738 9.136 137.282 10.12C136.838 11.092 136.202 11.854 135.374 12.406C134.546 12.946 133.55 13.216 132.386 13.216ZM132.386 11.146C133.334 11.146 134.108 10.75 134.708 9.958C135.308 9.166 135.608 8.08 135.608 6.7C135.608 5.32 135.308 4.234 134.708 3.442C134.108 2.65 133.334 2.254 132.386 2.254C131.426 2.254 130.646 2.65 130.046 3.442C129.458 4.234 129.164 5.32 129.164 6.7C129.164 8.08 129.458 9.166 130.046 9.958C130.646 10.75 131.426 11.146 132.386 11.146ZM141.867 13V3.028L139.797 3.514V1.75L142.839 0.399999H144.261V13H141.867ZM151.506 13.216C150.63 13.216 149.892 13.048 149.292 12.712C148.692 12.364 148.224 11.914 147.888 11.362C147.552 10.81 147.354 10.216 147.294 9.58H149.436C149.532 10.132 149.76 10.558 150.12 10.858C150.492 11.158 150.96 11.308 151.524 11.308C152.328 11.308 152.976 10.942 153.468 10.21C153.96 9.466 154.224 8.338 154.26 6.826C153.972 7.318 153.534 7.726 152.946 8.05C152.37 8.374 151.734 8.536 151.038 8.536C150.342 8.536 149.688 8.368 149.076 8.032C148.464 7.696 147.966 7.222 147.582 6.61C147.198 5.998 147.006 5.278 147.006 4.45C147.006 3.694 147.192 2.992 147.564 2.344C147.936 1.696 148.452 1.174 149.112 0.778C149.772 0.382 150.546 0.184 151.434 0.184C152.382 0.184 153.18 0.358 153.828 0.705999C154.476 1.054 154.992 1.522 155.376 2.11C155.772 2.698 156.054 3.352 156.222 4.072C156.402 4.792 156.492 5.53 156.492 6.286C156.492 7.69 156.294 8.914 155.898 9.958C155.514 10.99 154.944 11.794 154.188 12.37C153.444 12.934 152.55 13.216 151.506 13.216ZM151.578 6.592C152.022 6.592 152.424 6.496 152.784 6.304C153.144 6.1 153.426 5.836 153.63 5.512C153.834 5.176 153.936 4.804 153.936 4.396C153.936 3.748 153.708 3.214 153.252 2.794C152.808 2.374 152.244 2.164 151.56 2.164C150.888 2.164 150.33 2.374 149.886 2.794C149.442 3.202 149.22 3.724 149.22 4.36C149.22 5.032 149.442 5.572 149.886 5.98C150.33 6.388 150.894 6.592 151.578 6.592Z"/></symbol><symbol viewBox="0 0 8 15" id="facebook" xmlns="http://www.w3.org/2000/svg"><path fill-rule="evenodd" clip-rule="evenodd" d="M5.45703 15V8.25H7.64295L8 5.25H5.45703V3.789C5.45703 3.0165 5.47807 2.25 6.62951 2.25H7.79575V0.105C7.79575 0.07275 6.794 0 5.78055 0C3.664 0 2.33873 1.24275 2.33873 3.525V5.25H0V8.25H2.33873V15H5.45703Z"/></symbol><symbol viewBox="0 0 14 14" id="google" xmlns="http://www.w3.org/2000/svg"><path fill-rule="evenodd" clip-rule="evenodd" d="M13.8751 5.60271H7.14791C7.14791 6.30231 7.14791 7.70152 7.14362 8.40113H11.0418C10.8925 9.10074 10.3628 10.0802 9.61449 10.5734C9.61377 10.5727 9.61306 10.5776 9.61163 10.5769C8.61671 11.2338 7.30372 11.3829 6.32881 11.187C4.80069 10.8833 3.59134 9.77516 3.10032 8.36755C3.10317 8.36545 3.10532 8.34586 3.10746 8.34446C2.80012 7.47135 2.80012 6.30231 3.10746 5.60271H3.10675C3.50272 4.31683 4.74851 3.14359 6.27878 2.82247C7.50957 2.56152 8.89832 2.84416 9.91968 3.79982C10.0555 3.6669 11.7995 1.96405 11.9303 1.82553C8.44088 -1.33459 2.85373 -0.222915 0.763104 3.85789H0.762389C0.762389 3.85789 0.763104 3.85789 0.758816 3.86558C-0.275418 5.86996 -0.232534 8.23183 0.765963 10.1404C0.763104 10.1425 0.76096 10.1438 0.758816 10.1459C1.66368 11.902 3.31045 13.2487 5.29458 13.7615C7.40236 14.3142 10.0848 13.9364 11.8817 12.3112C11.8824 12.3119 11.8831 12.3126 11.8838 12.3133C13.4062 10.9421 14.354 8.60612 13.8751 5.60271Z"/></symbol><symbol viewBox="0 0 24 25" id="heart" xmlns="http://www.w3.org/2000/svg"><path fill-rule="evenodd" clip-rule="evenodd" d="M12.6924 7.58373C12.3055 7.95505 11.6945 7.95505 11.3076 7.58373L10.6152 6.91927C9.80477 6.14154 8.70994 5.66667 7.5 5.66667C5.01472 5.66667 3 7.68139 3 10.1667C3 12.5493 4.28979 14.5167 6.15176 16.1332C8.01532 17.7511 10.2434 18.8241 11.5746 19.3717C11.853 19.4862 12.147 19.4862 12.4254 19.3717C13.7566 18.8241 15.9847 17.7511 17.8482 16.1332C19.7102 14.5167 21 12.5493 21 10.1667C21 7.68139 18.9853 5.66667 16.5 5.66667C15.2901 5.66667 14.1952 6.14154 13.3848 6.91927L12.6924 7.58373ZM12 5.47624C10.8321 4.35548 9.24649 3.66667 7.5 3.66667C3.91015 3.66667 1 6.57682 1 10.1667C1 16.5349 7.97034 20.0517 10.8138 21.2214C11.5796 21.5364 12.4204 21.5364 13.1862 21.2214C16.0297 20.0517 23 16.5349 23 10.1667C23 6.57682 20.0899 3.66667 16.5 3.66667C14.7535 3.66667 13.1679 4.35548 12 5.47624Z"/></symbol><symbol viewBox="0 0 24 24" id="heart-line" xmlns="http://www.w3.org/2000/svg"><path d="M12.001 4.52853C14.35 2.42 17.98 2.49 20.2426 4.75736C22.5053 7.02472 22.583 10.637 20.4786 12.993L11.9999 21.485L3.52138 12.993C1.41705 10.637 1.49571 7.01901 3.75736 4.75736C6.02157 2.49315 9.64519 2.41687 12.001 4.52853ZM18.827 6.1701C17.3279 4.66794 14.9076 4.60701 13.337 6.01687L12.0019 7.21524L10.6661 6.01781C9.09098 4.60597 6.67506 4.66808 5.17157 6.17157C3.68183 7.66131 3.60704 10.0473 4.97993 11.6232L11.9999 18.6543L19.0201 11.6232C20.3935 10.0467 20.319 7.66525 18.827 6.1701Z"/></symbol><symbol viewBox="0 0 24 24" id="id-card-line" xmlns="http://www.w3.org/2000/svg"><path d="M3 6H21V18H3V6ZM2 4C1.44772 4 1 4.44772 1 5V19C1 19.5523 1.44772 20 2 20H22C22.5523 20 23 19.5523 23 19V5C23 4.44772 22.5523 4 22 4H2ZM13 8H19V10H13V8ZM18 12H13V14H18V12ZM10.5 10C10.5 11.3807 9.38071 12.5 8 12.5C6.61929 12.5 5.5 11.3807 5.5 10C5.5 8.61929 6.61929 7.5 8 7.5C9.38071 7.5 10.5 8.61929 10.5 10ZM8 13.5C6.067 13.5 4.5 15.067 4.5 17H11.5C11.5 15.067 9.933 13.5 8 13.5Z"/></symbol><symbol viewBox="0 0 16 16" id="linkedin" xmlns="http://www.w3.org/2000/svg"><path fill-rule="evenodd" clip-rule="evenodd" d="M16 16H12.9231V10.3967C12.9231 8.85961 12.2715 8.00218 11.1031 8.00218C9.83154 8.00218 9.07692 8.89563 9.07692 10.3967V16H6V5.59243H9.07692V6.76288C9.07692 6.76288 10.0423 5 12.2177 5C14.3938 5 16 6.3818 16 9.24148C16 12.1004 16 16 16 16ZM1.50031 3C0.671513 3 0 2.32819 0 1.4997C0 0.671815 0.671513 0 1.50031 0C2.32849 0 3 0.671815 3 1.4997C3.00061 2.32819 2.32849 3 1.50031 3ZM0 16H3V6H0V16Z"/></symbol><symbol viewBox="0 0 240 69" id="logo" xmlns="http://www.w3.org/2000/svg"><g clip-path="url(#hclip0_12_352)"><path d="M47.6747 15.3703V7.68644C47.6747 6.83777 46.7854 6.14968 45.6883 6.14968H43.7019V1.53938C43.7019 0.690705 42.8126 0.00261864 41.7155 0.00261864C38.9033 0.00261864 34.5966 -0.16412 29.541 2.17906C26.3983 1.45534 24.1757 1.53938 21.8517 1.53938C20.7546 1.53938 19.8653 2.22747 19.8653 3.07615V6.14968H17.879C16.7819 6.14968 15.8926 6.83777 15.8926 7.68644V15.3703C15.8926 21.6289 21.969 26.8099 29.7972 27.5685V47.6423C29.7972 48.491 30.6865 49.1791 31.7836 49.1791C32.8807 49.1791 33.77 48.491 33.77 47.6423V42.2637H36.7496C42.7737 42.2637 47.6747 38.472 47.6747 33.8114V31.5063C47.6747 30.6576 46.7854 29.9695 45.6883 29.9695H40.7223C38.0836 29.9695 35.6603 30.6971 33.77 31.9065V27.5678C41.5865 26.8189 47.6747 21.6636 47.6747 15.3703V15.3703ZM43.7019 15.3703C43.7019 18.1052 42.1385 20.5754 39.6676 22.269C39.7066 22.0224 39.7292 21.7719 39.7292 21.5173C39.7292 17.6256 37.8486 14.0678 34.7548 11.3573C37.3777 9.97267 40.4875 9.22321 43.7019 9.22321V15.3703ZM39.7292 3.07615V6.45972C39.362 6.51754 38.9975 6.58353 38.636 6.65719C37.3474 5.54122 35.8777 4.59044 34.2731 3.82215C36.0075 3.33154 37.8488 3.07615 39.7292 3.07615V3.07615ZM23.8381 4.61291C27.7844 4.61291 31.6168 5.72774 34.5972 7.85779C33.6136 8.25053 32.6704 8.70839 31.7778 9.22753C29.4683 7.88421 26.7696 6.92085 23.8381 6.45866V4.61291ZM19.8653 15.3703V9.22321C28.6276 9.22321 35.7564 14.7383 35.7564 21.5173C35.7564 23.2347 33.9233 24.634 31.6792 24.5894C24.7008 24.4561 19.8653 20.1668 19.8653 15.3703ZM40.7223 33.0431H43.7019V33.8114C43.7019 36.7772 40.5832 39.1901 36.7496 39.1901H33.77V38.4217C33.77 35.456 36.8889 33.0431 40.7223 33.0431Z"/></g><path d="M68.8052 26.885V30.0438H59.7264V26.885H68.8052ZM61.1889 13.0093V30.0438H57.0823V13.0093H61.1889ZM67.6353 19.7717V22.8252H59.7264V19.7717H67.6353ZM68.8403 13.0093V16.1799H59.7264V13.0093H68.8403ZM74.3736 13.0093L77.1581 18.6719L79.9426 13.0093H84.6224L79.8724 21.4564L84.7511 30.0438H80.0245L77.1581 24.276L74.2917 30.0438H69.5534L74.4438 21.4564L69.6821 13.0093H74.3736ZM93.2209 24.2643H88.9857V21.0937H93.2209C93.7981 21.0937 94.266 20.9962 94.6248 20.8012C94.9836 20.6062 95.2449 20.3371 95.4087 19.9939C95.5803 19.643 95.6661 19.2491 95.6661 18.8123C95.6661 18.3443 95.5803 17.9114 95.4087 17.5137C95.2449 17.1159 94.9836 16.7961 94.6248 16.5543C94.266 16.3047 93.7981 16.1799 93.2209 16.1799H90.53V30.0438H86.4235V13.0093H93.2209C94.5858 13.0093 95.7597 13.2589 96.7424 13.7581C97.733 14.2573 98.4935 14.9437 99.0238 15.8172C99.5542 16.683 99.8194 17.6735 99.8194 18.7889C99.8194 19.8887 99.5542 20.848 99.0238 21.667C98.4935 22.4859 97.733 23.1255 96.7424 23.5857C95.7597 24.0381 94.5858 24.2643 93.2209 24.2643ZM113.601 26.885V30.0438H104.99V26.885H113.601ZM106.452 13.0093V30.0438H102.346V13.0093H106.452ZM129.313 21.1873V21.8776C129.313 23.1801 129.129 24.3501 128.763 25.3874C128.404 26.417 127.893 27.2983 127.23 28.0315C126.567 28.7569 125.783 29.3146 124.879 29.7045C123.974 30.0867 122.975 30.2778 121.883 30.2778C120.784 30.2778 119.778 30.0867 118.865 29.7045C117.96 29.3146 117.172 28.7569 116.502 28.0315C115.839 27.2983 115.324 26.417 114.957 25.3874C114.599 24.3501 114.419 23.1801 114.419 21.8776V21.1873C114.419 19.8848 114.599 18.7148 114.957 17.6774C115.324 16.6401 115.835 15.7587 116.49 15.0334C117.153 14.3002 117.937 13.7425 118.842 13.3603C119.754 12.9703 120.76 12.7754 121.86 12.7754C122.952 12.7754 123.95 12.9703 124.855 13.3603C125.768 13.7425 126.555 14.3002 127.218 15.0334C127.881 15.7587 128.396 16.6401 128.763 17.6774C129.129 18.7148 129.313 19.8848 129.313 21.1873ZM125.148 21.8776V21.1639C125.148 20.3215 125.074 19.5806 124.925 18.941C124.785 18.2936 124.574 17.7515 124.294 17.3148C124.013 16.878 123.666 16.5504 123.252 16.332C122.847 16.1058 122.383 15.9927 121.86 15.9927C121.314 15.9927 120.838 16.1058 120.433 16.332C120.027 16.5504 119.688 16.878 119.415 17.3148C119.142 17.7515 118.935 18.2936 118.795 18.941C118.662 19.5806 118.596 20.3215 118.596 21.1639V21.8776C118.596 22.7121 118.662 23.4531 118.795 24.1005C118.935 24.74 119.142 25.2821 119.415 25.7267C119.696 26.1713 120.039 26.5067 120.444 26.7329C120.858 26.9591 121.337 27.0721 121.883 27.0721C122.406 27.0721 122.87 26.9591 123.276 26.7329C123.681 26.5067 124.021 26.1713 124.294 25.7267C124.574 25.2821 124.785 24.74 124.925 24.1005C125.074 23.4531 125.148 22.7121 125.148 21.8776ZM131.757 13.0093H138.461C139.771 13.0093 140.91 13.2043 141.877 13.5943C142.844 13.9843 143.589 14.5615 144.112 15.3258C144.642 16.0902 144.907 17.034 144.907 18.1571C144.907 19.1321 144.755 19.9471 144.451 20.6023C144.147 21.2575 143.722 21.7996 143.176 22.2286C142.638 22.6497 142.01 22.9968 141.292 23.2698L139.947 24.0303H134.319L134.296 20.8597H138.461C138.984 20.8597 139.416 20.7661 139.76 20.5789C140.103 20.3917 140.36 20.1265 140.532 19.7834C140.711 19.4324 140.801 19.0151 140.801 18.5315C140.801 18.0401 140.711 17.6189 140.532 17.268C140.352 16.917 140.087 16.6479 139.736 16.4607C139.393 16.2735 138.968 16.1799 138.461 16.1799H135.864V30.0438H131.757V13.0093ZM141.082 30.0438L137.314 22.5093L141.667 22.4859L145.481 29.8683V30.0438H141.082ZM159.426 26.885V30.0438H150.347V26.885H159.426ZM151.81 13.0093V30.0438H147.703V13.0093H151.81ZM158.256 19.7717V22.8252H150.347V19.7717H158.256ZM159.461 13.0093V16.1799H150.347V13.0093H159.461ZM61.4463 32.0093V49.0438H57.3514V32.0093H61.4463ZM78.8779 32.0093V49.0438H74.7831L68.7578 38.4441V49.0438H64.6513V32.0093H68.7578L74.7831 42.6091V32.0093H78.8779ZM87.3243 49.0438H83.5454L83.5688 45.885H87.3243C88.1043 45.885 88.7634 45.6978 89.3015 45.3234C89.8475 44.949 90.2609 44.3913 90.5417 43.6504C90.8303 42.9016 90.9746 41.9812 90.9746 40.8893V40.1522C90.9746 39.3332 90.8927 38.6157 90.7289 37.9995C90.5729 37.3755 90.3389 36.8568 90.0269 36.4435C89.7149 36.0223 89.3249 35.7064 88.857 35.4958C88.3968 35.2852 87.8664 35.1799 87.2658 35.1799H83.4752V32.0093H87.2658C88.4202 32.0093 89.477 32.2082 90.4364 32.606C91.4036 32.996 92.2381 33.5576 92.9401 34.2907C93.6499 35.0161 94.1958 35.878 94.578 36.8763C94.968 37.8669 95.163 38.9666 95.163 40.1756V40.8893C95.163 42.0904 94.968 43.1902 94.578 44.1885C94.1958 45.1869 93.6538 46.0487 92.9518 46.7741C92.2498 47.4995 91.4192 48.0611 90.4598 48.4588C89.5082 48.8488 88.4631 49.0438 87.3243 49.0438ZM85.897 32.0093V49.0438H81.7905V32.0093H85.897ZM112.033 40.1873V40.8776C112.033 42.1801 111.85 43.3501 111.483 44.3874C111.124 45.417 110.614 46.2983 109.951 47.0315C109.288 47.7569 108.504 48.3146 107.599 48.7045C106.694 49.0867 105.696 49.2778 104.604 49.2778C103.504 49.2778 102.498 49.0867 101.585 48.7045C100.681 48.3146 99.8929 47.7569 99.2221 47.0315C98.5591 46.2983 98.0444 45.417 97.6778 44.3874C97.319 43.3501 97.1396 42.1801 97.1396 40.8776V40.1873C97.1396 38.8848 97.319 37.7148 97.6778 36.6774C98.0444 35.6401 98.5552 34.7587 99.2104 34.0334C99.8734 33.3002 100.657 32.7425 101.562 32.3603C102.475 31.9703 103.481 31.7754 104.58 31.7754C105.672 31.7754 106.671 31.9703 107.576 32.3603C108.488 32.7425 109.276 33.3002 109.939 34.0334C110.602 34.7587 111.117 35.6401 111.483 36.6774C111.85 37.7148 112.033 38.8848 112.033 40.1873ZM107.868 40.8776V40.1639C107.868 39.3215 107.794 38.5806 107.646 37.941C107.505 37.2936 107.295 36.7515 107.014 36.3148C106.733 35.878 106.386 35.5504 105.973 35.332C105.567 35.1058 105.103 34.9927 104.58 34.9927C104.035 34.9927 103.559 35.1058 103.153 35.332C102.748 35.5504 102.408 35.878 102.135 36.3148C101.862 36.7515 101.656 37.2936 101.515 37.941C101.383 38.5806 101.316 39.3215 101.316 40.1639V40.8776C101.316 41.7121 101.383 42.4531 101.515 43.1005C101.656 43.74 101.862 44.2821 102.135 44.7267C102.416 45.1713 102.759 45.5067 103.165 45.7329C103.578 45.9591 104.058 46.0721 104.604 46.0721C105.126 46.0721 105.591 45.9591 105.996 45.7329C106.402 45.5067 106.741 45.1713 107.014 44.7267C107.295 44.2821 107.505 43.74 107.646 43.1005C107.794 42.4531 107.868 41.7121 107.868 40.8776ZM128.704 32.0093V49.0438H124.609L118.584 38.4441V49.0438H114.478V32.0093H118.584L124.609 42.6091V32.0093H128.704ZM143.34 45.885V49.0438H134.261V45.885H143.34ZM135.723 32.0093V49.0438H131.617V32.0093H135.723ZM142.17 38.7717V41.8252H134.261V38.7717H142.17ZM143.375 32.0093V35.1799H134.261V32.0093H143.375ZM154.114 44.5161C154.114 44.2509 154.075 44.013 153.997 43.8024C153.919 43.5841 153.775 43.3813 153.564 43.1941C153.354 43.0069 153.05 42.8197 152.652 42.6325C152.262 42.4375 151.747 42.2347 151.108 42.0241C150.359 41.7745 149.637 41.4937 148.943 41.1818C148.249 40.862 147.629 40.4915 147.083 40.0703C146.537 39.6413 146.104 39.1421 145.784 38.5728C145.465 37.9956 145.305 37.3248 145.305 36.5604C145.305 35.8273 145.468 35.1682 145.796 34.5832C146.124 33.9905 146.58 33.4874 147.165 33.074C147.758 32.6528 148.452 32.333 149.247 32.1146C150.043 31.8884 150.913 31.7754 151.856 31.7754C153.104 31.7754 154.204 31.9937 155.156 32.4305C156.115 32.8595 156.864 33.4718 157.402 34.2673C157.948 35.0551 158.221 35.9872 158.221 37.0635H154.138C154.138 36.6345 154.048 36.2563 153.869 35.9287C153.697 35.6011 153.436 35.3437 153.085 35.1565C152.734 34.9693 152.293 34.8757 151.763 34.8757C151.248 34.8757 150.815 34.9537 150.464 35.1097C150.113 35.2657 149.848 35.4763 149.669 35.7415C149.489 35.9989 149.399 36.2836 149.399 36.5955C149.399 36.8529 149.47 37.0869 149.61 37.2975C149.758 37.5003 149.965 37.6914 150.23 37.8708C150.503 38.0502 150.831 38.2218 151.213 38.3856C151.603 38.5494 152.04 38.7093 152.523 38.8653C153.428 39.1538 154.231 39.4775 154.933 39.8363C155.643 40.1873 156.24 40.589 156.723 41.0414C157.215 41.4859 157.585 41.9929 157.835 42.5623C158.092 43.1317 158.221 43.7751 158.221 44.4927C158.221 45.2571 158.073 45.9357 157.776 46.5284C157.48 47.1212 157.055 47.6243 156.501 48.0377C155.947 48.4432 155.284 48.7513 154.512 48.9619C153.74 49.1725 152.878 49.2778 151.927 49.2778C151.053 49.2778 150.191 49.1686 149.341 48.9502C148.499 48.724 147.734 48.3809 147.048 47.9207C146.361 47.4527 145.812 46.856 145.398 46.1306C144.993 45.3975 144.79 44.5278 144.79 43.5217H148.908C148.908 44.0208 148.974 44.442 149.107 44.7852C149.24 45.1284 149.435 45.4053 149.692 45.6159C149.949 45.8187 150.265 45.9669 150.64 46.0604C151.014 46.1462 151.443 46.1891 151.927 46.1891C152.449 46.1891 152.87 46.115 153.19 45.9669C153.51 45.8109 153.744 45.6081 153.892 45.3585C154.04 45.1011 154.114 44.8203 154.114 44.5161ZM165.018 32.0093V49.0438H160.923V32.0093H165.018ZM175.652 35.5894L171.499 49.0438H167.088L173.347 32.0093H176.143L175.652 35.5894ZM179.092 49.0438L174.927 35.5894L174.388 32.0093H177.22L183.514 49.0438H179.092ZM178.928 42.691V45.8616H170.188V42.691H178.928Z"/><defs><clipPath id="hclip0_12_352"><rect width="63.5676" height="49.1791"/></clipPath></defs></symbol><symbol viewBox="0 0 25 52" id="logo@2x" xmlns="http://www.w3.org/2000/svg"><path d="M24.7685 16.0385V8.0206C24.7685 7.13503 24.0827 6.41702 23.2366 6.41702H21.7046V1.60628C21.7046 0.720704 21.0188 0.00270065 20.1726 0.00270065C18.0038 0.00270065 14.6823 -0.171288 10.7832 2.27377C8.35946 1.51859 6.64528 1.60628 4.85298 1.60628C4.00686 1.60628 3.32101 2.32428 3.32101 3.20986V6.41702H1.78905C0.942922 6.41702 0.25708 7.13503 0.25708 8.0206V16.0385C0.25708 22.5693 4.94346 27.9756 10.9808 28.7671V49.7137C10.9808 50.5993 11.6667 51.3173 12.5128 51.3173C13.3589 51.3173 14.0448 50.5993 14.0448 49.7137V44.1012H16.3427C20.9887 44.1012 24.7685 40.1446 24.7685 35.2815V32.8761C24.7685 31.9905 24.0827 31.2725 23.2366 31.2725H19.4067C17.3715 31.2725 15.5026 32.0317 14.0448 33.2937V28.7663C20.0732 27.9849 24.7685 22.6055 24.7685 16.0385V16.0385ZM21.7046 16.0385C21.7046 18.8924 20.4989 21.4699 18.5932 23.2372C18.6233 22.9799 18.6407 22.7185 18.6407 22.4528C18.6407 18.3919 17.1903 14.6794 14.8043 11.8511C16.8271 10.4062 19.2255 9.62418 21.7046 9.62418V16.0385ZM18.6407 3.20986V6.74055C18.3576 6.80088 18.0764 6.86973 17.7976 6.94661C16.8038 5.78211 15.6703 4.78999 14.4327 3.9883C15.7704 3.47636 17.1905 3.20986 18.6407 3.20986V3.20986ZM6.38495 4.81344C9.42848 4.81344 12.3841 5.97674 14.6827 8.1994C13.9241 8.60922 13.1967 9.08698 12.5083 9.62869C10.7271 8.22696 8.64584 7.22172 6.38495 6.73944V4.81344ZM3.32101 16.0385V9.62418C10.0788 9.62418 15.5767 15.379 15.5767 22.4528C15.5767 24.2448 14.163 25.705 12.4323 25.6585C7.0503 25.5194 3.32101 21.0436 3.32101 16.0385ZM19.4067 34.4797H21.7046V35.2815C21.7046 38.3762 19.2993 40.894 16.3427 40.894H14.0448V40.0922C14.0448 36.9975 16.4502 34.4797 19.4067 34.4797Z"/></symbol><symbol viewBox="0 0 15 24" id="next" xmlns="http://www.w3.org/2000/svg"><path fill-rule="evenodd" clip-rule="evenodd" d="M8.60389 12.1394L1.1047 19.6386C0.128388 20.6149 0.128388 22.1978 1.1047 23.1741C2.08101 24.1504 3.66392 24.1504 4.64023 23.1741L13.945 13.8693C14.9213 12.893 14.9213 11.3101 13.945 10.3338C13.8197 10.2085 13.6844 10.0993 13.5417 10.0061L4.2678 0.732233C3.29149 -0.244078 1.70858 -0.244078 0.732269 0.732233C-0.244041 1.70854 -0.244041 3.29146 0.732269 4.26777L8.60389 12.1394Z"/></symbol><symbol viewBox="0 0 21 26" id="play" xmlns="http://www.w3.org/2000/svg"><path d="M0.553955 0.167114V25.8338L20.7311 13.0005L0.553955 0.167114Z"/></symbol><symbol viewBox="0 0 45 44" id="play_arrow" xmlns="http://www.w3.org/2000/svg"><g clip-path="url(#lclip0_6_367)"><path d="M14.6743 9.16666V34.8333L34.8515 22L14.6743 9.16666Z"/></g><defs><clipPath id="lclip0_6_367"><rect width="44.0229" height="44"/></clipPath></defs></symbol><symbol viewBox="0 0 15 24" id="prev" xmlns="http://www.w3.org/2000/svg"><path fill-rule="evenodd" clip-rule="evenodd" d="M6.07336 12.1394L13.5725 19.6386C14.5489 20.6149 14.5489 22.1978 13.5725 23.1741C12.5962 24.1504 11.0133 24.1504 10.037 23.1741L0.732233 13.8693C-0.244078 12.893 -0.244078 11.3101 0.732233 10.3338C0.857529 10.2085 0.992815 10.0993 1.13553 10.0061L10.4094 0.732233C11.3858 -0.244078 12.9687 -0.244078 13.945 0.732233C14.9213 1.70854 14.9213 3.29146 13.945 4.26777L6.07336 12.1394Z"/></symbol><symbol viewBox="0 0 19 18" id="search" xmlns="http://www.w3.org/2000/svg"><path d="M13.3805 11H12.5905L12.3105 10.73C13.2905 9.59 13.8805 8.11 13.8805 6.5C13.8805 2.91 10.9705 0 7.38049 0C3.79049 0 0.880493 2.91 0.880493 6.5C0.880493 10.09 3.79049 13 7.38049 13C8.99049 13 10.4705 12.41 11.6105 11.43L11.8805 11.71V12.5L16.8805 17.49L18.3705 16L13.3805 11ZM7.38049 11C4.89049 11 2.88049 8.99 2.88049 6.5C2.88049 4.01 4.89049 2 7.38049 2C9.87049 2 11.8805 4.01 11.8805 6.5C11.8805 8.99 9.87049 11 7.38049 11Z"/></symbol><symbol viewBox="0 0 24 24" id="search-line" xmlns="http://www.w3.org/2000/svg"><path d="M18.031 16.6168L22.3137 20.8995L20.8995 22.3137L16.6168 18.031C15.0769 19.263 13.124 20 11 20C6.032 20 2 15.968 2 11C2 6.032 6.032 2 11 2C15.968 2 20 6.032 20 11C20 13.124 19.263 15.0769 18.031 16.6168ZM16.0247 15.8748C17.2475 14.6146 18 12.8956 18 11C18 7.1325 14.8675 4 11 4C7.1325 4 4 7.1325 4 11C4 14.8675 7.1325 18 11 18C12.8956 18 14.6146 17.2475 15.8748 16.0247L16.0247 15.8748Z"/></symbol><symbol viewBox="0 0 19 18" id="search@2x" xmlns="http://www.w3.org/2000/svg"><path d="M13.3805 11H12.5905L12.3105 10.73C13.2905 9.59 13.8805 8.11 13.8805 6.5C13.8805 2.91 10.9705 0 7.38049 0C3.79049 0 0.880493 2.91 0.880493 6.5C0.880493 10.09 3.79049 13 7.38049 13C8.99049 13 10.4705 12.41 11.6105 11.43L11.8805 11.71V12.5L16.8805 17.49L18.3705 16L13.3805 11ZM7.38049 11C4.89049 11 2.88049 8.99 2.88049 6.5C2.88049 4.01 4.89049 2 7.38049 2C9.87049 2 11.8805 4.01 11.8805 6.5C11.8805 8.99 9.87049 11 7.38049 11Z"/></symbol><symbol viewBox="0 0 24 24" id="user" xmlns="http://www.w3.org/2000/svg"><path d="M18.5588 19.5488C17.5654 16.8918 15.0036 15 12 15C8.99638 15 6.4346 16.8918 5.44117 19.5488M18.5588 19.5488C20.6672 17.7154 22 15.0134 22 12C22 6.47715 17.5228 2 12 2C6.47715 2 2 6.47715 2 12C2 15.0134 3.33285 17.7154 5.44117 19.5488M18.5588 19.5488C16.8031 21.0756 14.5095 22 12 22C9.49052 22 7.19694 21.0756 5.44117 19.5488M15 9C15 10.6569 13.6569 12 12 12C10.3431 12 9 10.6569 9 9C9 7.34315 10.3431 6 12 6C13.6569 6 15 7.34315 15 9Z" stroke-width="1.5" stroke-linejoin="round"/></symbol><symbol viewBox="0 0 24 24" id="user-star-line" xmlns="http://www.w3.org/2000/svg"><path d="M12 14V16C8.68629 16 6 18.6863 6 22H4C4 17.5817 7.58172 14 12 14ZM12 13C8.685 13 6 10.315 6 7C6 3.685 8.685 1 12 1C15.315 1 18 3.685 18 7C18 10.315 15.315 13 12 13ZM12 11C14.21 11 16 9.21 16 7C16 4.79 14.21 3 12 3C9.79 3 8 4.79 8 7C8 9.21 9.79 11 12 11ZM18 21.5L15.0611 23.0451L15.6224 19.7725L13.2447 17.4549L16.5305 16.9775L18 14L19.4695 16.9775L22.7553 17.4549L20.3776 19.7725L20.9389 23.0451L18 21.5Z"/></symbol><symbol id="website" enable-background="new 0 0 497 497" viewBox="0 0 497 497" xmlns="http://www.w3.org/2000/svg"><g><path d="m497 128.5v312c0 11.046-8.954 20-20 20h-457c-11.046 0-20-8.954-20-20v-312z"/><g><path d="m290.498 294.5c0-23.196-18.804-42-42-42-7.031 0-13.659 1.728-19.482 4.782-13.386 7.021-19.327 21.053-19.327 37.218 0 23.196 15.613 36.457 38.809 36.457 16.214 0 30.282-3.645 37.282-17.099 3.014-5.792 4.718-12.376 4.718-19.358z"/><path d="m286.468 312.47c-6.73 14.21-21.2 24.03-37.97 24.03-23.2 0-42-18.8-42-42 0-16.77 9.82-31.24 24.03-37.97-2.59 5.45-4.03 11.54-4.03 17.97 0 23.2 18.8 42 42 42 6.43 0 12.52-1.44 17.97-4.03z"/></g><g><path d="m429.496 294.5c0-23.196-18.804-42-42-42-7.031 0-13.659 1.728-19.482 4.782-13.386 7.021-19.327 21.053-19.327 37.218 0 23.196 15.613 36.457 38.809 36.457 16.214 0 30.282-3.645 37.282-17.099 3.014-5.792 4.718-12.376 4.718-19.358z"/><path d="m425.466 312.47c-6.73 14.21-21.2 24.03-37.97 24.03-23.2 0-42-18.8-42-42 0-16.77 9.82-31.24 24.03-37.97-2.59 5.45-4.03 11.54-4.03 17.97 0 23.2 18.8 42 42 42 6.43 0 12.52-1.44 17.97-4.03z"/></g><path d="m497 148.5v-20l-276.011-12.798-220.989 12.798v20 292c0 11.046 8.954 20 20 20h15c-8.28 0-15-6.72-15-15v-291c0-3.314 2.686-6 6-6z"/><g><path d="m497 56.5v72.5h-497v-72.5c0-11.046 8.954-20 20-20h457c11.046 0 20 8.954 20 20z"/><g><path d="m227.758 108.5c-8.255 0-14.947-6.716-14.947-15s6.692-15 14.947-15h208.315c8.255 0 14.947 6.716 14.947 15s-6.692 15-14.947 15z"/><ellipse cx="160.869" cy="93.5" rx="14.947" ry="15"/><path d="m171.361 104.184 12.874-12.869-13.139 1.179z"/><path d="m150.592 82.608 12.562-12.516-2.693 10.408z"/><ellipse cx="98.034" cy="93.5" rx="14.947" ry="15"/><path d="m108.553 104.157 12.382-12.499-12.674.836z"/><path d="m87.757 82.608 12.371-12.459-2.502 10.351z"/><ellipse cx="32.947" cy="93.5" rx="14.947" ry="15"/><path d="m43.769 103.846 12.721-13.186-13.139 1.381z"/><path d="m22.67 82.608 11.622-12.038-1.753 9.93z"/></g><ellipse cx="173.849" cy="80.5" rx="14.947" ry="15"/><path d="m217.514 82.577 12.971-12.991-3.025 14.276z"/><path d="m446.83 103.915 13.149-13.179-10.185 3.381z"/><ellipse cx="110.946" cy="80.5" rx="14.947" ry="15"/><ellipse cx="45.495" cy="80.5" rx="14.947" ry="15"/><path d="m240.737 95.5c-8.255 0-14.947-6.716-14.947-15s6.692-15 14.947-15h208.315c8.255 0 14.947 6.716 14.947 15s-6.692 15-14.947 15z"/></g><path d="m135.893 215 226.628 2c5.523 0 10-4.477 10-10l3.479-7v-30c0-5.523-4.477-10-10-10h-224l-6.107 5c-5.523 0-10 4.477-10 10v30c0 5.523 4.477 10 10 10z"/><path d="m376 200v10c0 5.523-4.477 10-10 10h-234c-5.523 0-10-4.477-10-10v-40c0-5.523 4.477-10 10-10h10v33c0 3.866 3.134 7 7 7z"/><g><path d="m151.5 294.5c0-23.196-18.804-42-42-42-7.031 0-13.659 1.728-19.482 4.782-13.386 7.021-19.327 21.053-19.327 37.218 0 23.196 15.613 36.457 38.809 36.457 16.214 0 30.282-3.645 37.282-17.099 3.014-5.792 4.718-12.376 4.718-19.358z"/><path d="m147.47 312.47c-6.73 14.21-21.2 24.03-37.97 24.03-23.2 0-42-18.8-42-42 0-16.77 9.82-31.24 24.03-37.97-2.59 5.45-4.03 11.54-4.03 17.97 0 23.2 18.8 42 42 42 6.43 0 12.52-1.44 17.97-4.03z"/></g><g><g><path d="m149.5 374h-70c-4.142 0-7.5-3.358-7.5-7.5s3.358-7.5 7.5-7.5h70c4.142 0 7.5 3.358 7.5 7.5s-3.358 7.5-7.5 7.5z"/></g><g><path d="m149.5 404h-80c-4.142 0-7.5-3.358-7.5-7.5s3.358-7.5 7.5-7.5h80c4.142 0 7.5 3.358 7.5 7.5s-3.358 7.5-7.5 7.5z"/></g><g><path d="m149.5 434h-80c-4.142 0-7.5-3.358-7.5-7.5s3.358-7.5 7.5-7.5h80c4.142 0 7.5 3.358 7.5 7.5s-3.358 7.5-7.5 7.5z"/></g></g><g><g><path d="m288.5 374h-70c-4.142 0-7.5-3.358-7.5-7.5s3.358-7.5 7.5-7.5h70c4.143 0 7.5 3.358 7.5 7.5s-3.357 7.5-7.5 7.5z"/></g><g><path d="m288.5 404h-80c-4.142 0-7.5-3.358-7.5-7.5s3.358-7.5 7.5-7.5h80c4.143 0 7.5 3.358 7.5 7.5s-3.357 7.5-7.5 7.5z"/></g><g><path d="m288.5 434h-80c-4.142 0-7.5-3.358-7.5-7.5s3.358-7.5 7.5-7.5h80c4.143 0 7.5 3.358 7.5 7.5s-3.357 7.5-7.5 7.5z"/></g></g><g><g><path d="m427.5 374h-70c-4.143 0-7.5-3.358-7.5-7.5s3.357-7.5 7.5-7.5h70c4.143 0 7.5 3.358 7.5 7.5s-3.357 7.5-7.5 7.5z"/></g><g><path d="m427.5 404h-80c-4.143 0-7.5-3.358-7.5-7.5s3.357-7.5 7.5-7.5h80c4.143 0 7.5 3.358 7.5 7.5s-3.357 7.5-7.5 7.5z"/></g><g><path d="m427.5 434h-80c-4.143 0-7.5-3.358-7.5-7.5s3.357-7.5 7.5-7.5h80c4.143 0 7.5 3.358 7.5 7.5s-3.357 7.5-7.5 7.5z"/></g></g></g></symbol></svg>