<?xml version="1.0" encoding="utf-8"?><svg viewBox="0 0 512 512" xmlns="http://www.w3.org/2000/svg" xmlns:xlink="http://www.w3.org/1999/xlink"><style>:root>svg{display:none}:root>svg:target{display:block}</style><svg fill="none" viewBox="0 0 39 22" id="Union" xmlns="http://www.w3.org/2000/svg"><path fill-rule="evenodd" clip-rule="evenodd" d="M37.292 16.628a2.638 2.638 0 1 1-3.73 3.73L19.138 5.935 4.503 20.571a2.638 2.638 0 0 1-3.73-3.73L16.628.984a2.63 2.63 0 0 1 1.904-.772 2.639 2.639 0 0 1 2.905.56l15.855 15.855Z" fill="#fff"/></svg><svg fill="none" viewBox="0 0 157 18" id="copyright" xmlns="http://www.w3.org/2000/svg"><path d="M6.93 13.216c-1.272 0-2.364-.27-3.276-.81a5.537 5.537 0 0 1-2.106-2.286C1.056 9.136.81 8.002.81 6.718c0-1.284.246-2.418.738-3.402a5.512 5.512 0 0 1 2.106-2.304C4.566.46 5.658.184 6.93.184c1.512 0 2.748.378 3.708 1.134.972.744 1.578 1.794 1.818 3.15H9.918c-.156-.684-.492-1.218-1.008-1.602-.504-.396-1.176-.594-2.016-.594-1.164 0-2.076.396-2.736 1.188-.66.792-.99 1.878-.99 3.258 0 1.38.33 2.466.99 3.258.66.78 1.572 1.17 2.736 1.17.84 0 1.512-.18 2.016-.54.516-.372.852-.882 1.008-1.53h2.538c-.24 1.296-.846 2.31-1.818 3.042-.96.732-2.196 1.098-3.708 1.098Zm12.296 0c-.864 0-1.645-.198-2.34-.594a4.468 4.468 0 0 1-1.638-1.638c-.396-.708-.595-1.524-.595-2.448 0-.924.204-1.734.612-2.43a4.429 4.429 0 0 1 1.639-1.656c.695-.396 1.476-.594 2.34-.594.852 0 1.62.198 2.303.594a4.26 4.26 0 0 1 1.639 1.656c.407.696.611 1.506.611 2.43 0 .924-.204 1.74-.611 2.448a4.296 4.296 0 0 1-1.639 1.638 4.612 4.612 0 0 1-2.322.594Zm0-1.998c.6 0 1.122-.222 1.566-.666.443-.456.665-1.128.665-2.016 0-.888-.222-1.554-.666-1.998-.444-.456-.96-.684-1.547-.684-.613 0-1.14.228-1.584.684-.433.444-.648 1.11-.648 1.998 0 .888.215 1.56.648 2.016.444.444.965.666 1.566.666Zm7.132 5.742V4.072h2.052l.252 1.278a4.145 4.145 0 0 1 1.134-1.044c.48-.3 1.098-.45 1.854-.45.84 0 1.59.204 2.25.612.66.408 1.181.966 1.566 1.674.383.708.575 1.512.575 2.412 0 .9-.191 1.704-.575 2.412a4.42 4.42 0 0 1-1.566 1.656c-.66.396-1.41.594-2.25.594-.672 0-1.26-.126-1.764-.378a3.18 3.18 0 0 1-1.224-1.062v5.184h-2.304Zm4.805-5.76c.732 0 1.338-.246 1.818-.738s.72-1.128.72-1.908-.24-1.422-.72-1.926-1.086-.756-1.818-.756c-.744 0-1.355.252-1.835.756-.468.492-.703 1.128-.703 1.908s.235 1.422.703 1.926c.48.492 1.091.738 1.835.738Zm7.744 5.76 2.07-4.554h-.54l-3.474-8.334h2.502l2.502 6.282 2.61-6.282h2.448l-5.67 12.888h-2.448ZM49.031 13V4.072h2.052l.216 1.674a3.689 3.689 0 0 1 1.314-1.368c.564-.348 1.224-.522 1.98-.522v2.43h-.648a3.66 3.66 0 0 0-1.35.234 1.862 1.862 0 0 0-.936.81c-.216.384-.324.918-.324 1.602V13h-2.304ZM57.91 2.686c-.42 0-.768-.126-1.044-.378a1.263 1.263 0 0 1-.396-.954c0-.384.132-.696.396-.936.276-.252.624-.378 1.044-.378.42 0 .762.126 1.026.378.276.24.414.552.414.936s-.138.702-.414.954c-.264.252-.606.378-1.026.378ZM56.758 13V4.072h2.304V13h-2.304Zm8.989-2.664c-.432 0-.834-.048-1.206-.144l-.666.666c.204.108.48.198.828.27.348.072.912.144 1.692.216 1.188.108 2.052.39 2.592.846.54.456.81 1.086.81 1.89 0 .528-.144 1.026-.432 1.494-.288.48-.732.864-1.332 1.152-.6.3-1.368.45-2.304.45-1.272 0-2.298-.24-3.078-.72-.78-.468-1.17-1.176-1.17-2.124 0-.804.39-1.5 1.17-2.088a4.37 4.37 0 0 1-.63-.342 3.563 3.563 0 0 1-.45-.378v-.414l1.566-1.656c-.696-.612-1.044-1.398-1.044-2.358 0-.6.144-1.146.432-1.638.3-.492.72-.882 1.26-1.17.54-.288 1.194-.432 1.962-.432.504 0 .972.072 1.404.216h3.384v1.404l-1.53.108c.24.456.36.96.36 1.512 0 .6-.144 1.146-.432 1.638-.288.492-.708.882-1.26 1.17-.54.288-1.182.432-1.926.432Zm0-1.764c.468 0 .852-.126 1.152-.378.312-.252.468-.612.468-1.08 0-.468-.156-.828-.468-1.08-.3-.252-.684-.378-1.152-.378-.492 0-.888.126-1.188.378-.3.252-.45.612-.45 1.08 0 .468.15.828.45 1.08.3.252.696.378 1.188.378Zm-2.16 5.526c0 .444.204.774.612.99.42.228.93.342 1.53.342.576 0 1.044-.12 1.404-.36.36-.228.54-.54.54-.936 0-.324-.12-.594-.36-.81-.228-.216-.69-.348-1.386-.396-.492-.036-.948-.09-1.368-.162-.348.192-.6.402-.756.63a1.3 1.3 0 0 0-.216.702ZM72.715 13V.04h2.304v5.4c.3-.492.702-.876 1.206-1.152.516-.288 1.104-.432 1.764-.432 1.104 0 1.956.348 2.556 1.044.612.696.918 1.716.918 3.06V13h-2.286V8.176c0-.768-.156-1.356-.468-1.764-.3-.408-.78-.612-1.44-.612-.648 0-1.188.228-1.62.684-.42.456-.63 1.092-.63 1.908V13h-2.304Zm15.43 0c-.937 0-1.687-.228-2.25-.684-.565-.456-.847-1.266-.847-2.43V5.998h-1.53V4.072h1.53l.27-2.394h2.034v2.394h2.412v1.926h-2.412v3.906c0 .432.09.732.27.9.192.156.516.234.972.234h1.116V13h-1.566Zm14.79.108c-1.236 0-2.328-.276-3.276-.828a5.998 5.998 0 0 1-2.214-2.268c-.528-.972-.792-2.088-.792-3.348 0-1.248.264-2.352.792-3.312a5.832 5.832 0 0 1 2.214-2.268c.948-.552 2.04-.828 3.276-.828 1.248 0 2.34.276 3.276.828a5.672 5.672 0 0 1 2.214 2.268c.528.96.792 2.064.792 3.312 0 1.26-.264 2.376-.792 3.348a5.828 5.828 0 0 1-2.214 2.268c-.936.552-2.028.828-3.276.828Zm0-.846c1.116 0 2.076-.234 2.88-.702a4.717 4.717 0 0 0 1.854-1.962c.444-.84.666-1.818.666-2.934s-.222-2.094-.666-2.934a4.603 4.603 0 0 0-1.854-1.944c-.804-.468-1.764-.702-2.88-.702-1.104 0-2.058.234-2.862.702a4.718 4.718 0 0 0-1.872 1.944c-.432.84-.648 1.818-.648 2.934s.216 2.094.648 2.934a4.837 4.837 0 0 0 1.872 1.962c.804.468 1.758.702 2.862.702Zm.018-1.476c-.744 0-1.416-.162-2.016-.486a3.68 3.68 0 0 1-1.422-1.422c-.336-.624-.504-1.362-.504-2.214 0-.852.168-1.584.504-2.196a3.68 3.68 0 0 1 1.422-1.422c.6-.336 1.272-.504 2.016-.504.924 0 1.722.252 2.394.756.684.504 1.128 1.206 1.332 2.106h-2.016a1.752 1.752 0 0 0-.666-.918c-.3-.228-.666-.342-1.098-.342a1.85 1.85 0 0 0-1.422.63c-.372.42-.558 1.05-.558 1.89 0 .84.186 1.476.558 1.908.384.42.858.63 1.422.63.456 0 .828-.114 1.116-.342.288-.228.504-.534.648-.918h2.016c-.204.864-.648 1.554-1.332 2.07-.672.516-1.47.774-2.394.774ZM116.219 13v-1.674c.768-.636 1.512-1.266 2.232-1.89a22.417 22.417 0 0 0 1.944-1.854c.576-.612 1.032-1.206 1.368-1.782.348-.588.522-1.158.522-1.71 0-.516-.144-.972-.432-1.368-.276-.396-.738-.594-1.386-.594-.66 0-1.158.216-1.494.648-.336.432-.504.954-.504 1.566h-2.232c.024-.924.228-1.692.612-2.304a3.547 3.547 0 0 1 1.53-1.386c.636-.312 1.35-.468 2.142-.468 1.284 0 2.28.354 2.988 1.062.72.696 1.08 1.602 1.08 2.718 0 .696-.162 1.374-.486 2.034a8.795 8.795 0 0 1-1.242 1.908 17.493 17.493 0 0 1-1.674 1.728c-.6.528-1.182 1.02-1.746 1.476h5.454V13h-8.676Zm16.167.216c-1.164 0-2.16-.27-2.988-.81-.828-.552-1.47-1.314-1.926-2.286-.444-.984-.666-2.124-.666-3.42 0-1.284.222-2.418.666-3.402.456-.984 1.098-1.746 1.926-2.286.828-.552 1.824-.828 2.988-.828s2.16.276 2.988.828c.828.54 1.464 1.302 1.908 2.286.456.984.684 2.118.684 3.402 0 1.296-.228 2.436-.684 3.42-.444.972-1.08 1.734-1.908 2.286-.828.54-1.824.81-2.988.81Zm0-2.07c.948 0 1.722-.396 2.322-1.188.6-.792.9-1.878.9-3.258 0-1.38-.3-2.466-.9-3.258-.6-.792-1.374-1.188-2.322-1.188-.96 0-1.74.396-2.34 1.188-.588.792-.882 1.878-.882 3.258 0 1.38.294 2.466.882 3.258.6.792 1.38 1.188 2.34 1.188ZM141.867 13V3.028l-2.07.486V1.75L142.839.4h1.422V13h-2.394Zm9.639.216c-.876 0-1.614-.168-2.214-.504a3.892 3.892 0 0 1-1.404-1.35 4.132 4.132 0 0 1-.594-1.782h2.142c.096.552.324.978.684 1.278.372.3.84.45 1.404.45.804 0 1.452-.366 1.944-1.098.492-.744.756-1.872.792-3.384-.288.492-.726.9-1.314 1.224a3.825 3.825 0 0 1-1.908.486c-.696 0-1.35-.168-1.962-.504a4.038 4.038 0 0 1-1.494-1.422c-.384-.612-.576-1.332-.576-2.16 0-.756.186-1.458.558-2.106a4.303 4.303 0 0 1 1.548-1.566c.66-.396 1.434-.594 2.322-.594.948 0 1.746.174 2.394.522a4.165 4.165 0 0 1 1.548 1.404c.396.588.678 1.242.846 1.962.18.72.27 1.458.27 2.214 0 1.404-.198 2.628-.594 3.672-.384 1.032-.954 1.836-1.71 2.412-.744.564-1.638.846-2.682.846Zm.072-6.624c.444 0 .846-.096 1.206-.288a2.34 2.34 0 0 0 .846-.792c.204-.336.306-.708.306-1.116 0-.648-.228-1.182-.684-1.602-.444-.42-1.008-.63-1.692-.63-.672 0-1.23.21-1.674.63-.444.408-.666.93-.666 1.566 0 .672.222 1.212.666 1.62.444.408 1.008.612 1.692.612Z" fill="#fff"/></svg><svg fill="none" viewBox="0 0 8 15" id="facebook" xmlns="http://www.w3.org/2000/svg"><path fill-rule="evenodd" clip-rule="evenodd" d="M5.457 15V8.25h2.186l.357-3H5.457V3.789c0-.772.021-1.539 1.173-1.539h1.166V.105C7.796.073 6.794 0 5.78 0 3.664 0 2.339 1.243 2.339 3.525V5.25H0v3h2.339V15h3.118Z" fill="#fff"/></svg><svg fill="none" viewBox="0 0 14 14" id="google" xmlns="http://www.w3.org/2000/svg"><path fill-rule="evenodd" clip-rule="evenodd" d="M13.875 5.603H7.148c0 .7 0 2.099-.004 2.798h3.898c-.15.7-.68 1.68-1.428 2.172 0 0 0 .005-.002.004-.995.657-2.308.806-3.283.61A4.33 4.33 0 0 1 3.1 8.367c.003-.002.005-.021.007-.023-.307-.873-.307-2.042 0-2.741.396-1.286 1.642-2.46 3.172-2.78 1.23-.261 2.62.021 3.64.977.136-.133 1.88-1.836 2.011-1.974C8.44-1.334 2.854-.223.763 3.858l-.004.008a6.837 6.837 0 0 0 .007 6.274l-.007.006a7.126 7.126 0 0 0 4.536 3.615c2.107.553 4.79.175 6.587-1.45l.002.002c1.522-1.37 2.47-3.707 1.991-6.71Z" fill="#fff"/></svg><svg fill="none" viewBox="0 0 24 25" id="heart" xmlns="http://www.w3.org/2000/svg"><path fill-rule="evenodd" clip-rule="evenodd" d="M12.692 7.584a1 1 0 0 1-1.384 0l-.693-.665A4.5 4.5 0 0 0 3 10.166c0 2.383 1.29 4.35 3.152 5.967 1.863 1.618 4.091 2.691 5.423 3.239.278.114.572.114.85 0 1.332-.548 3.56-1.62 5.423-3.239C19.71 14.517 21 12.55 21 10.167a4.5 4.5 0 0 0-7.615-3.248l-.693.665ZM12 5.476a6.5 6.5 0 0 0-11 4.69c0 6.369 6.97 9.886 9.814 11.055a3.096 3.096 0 0 0 2.372 0C16.03 20.051 23 16.535 23 10.167a6.5 6.5 0 0 0-11-4.69Z" fill="#141718"/></svg><svg fill="none" viewBox="0 0 24 24" id="heart-line" xmlns="http://www.w3.org/2000/svg"><path d="M12.001 4.529a5.998 5.998 0 0 1 8.242.228 6 6 0 0 1 .236 8.236l-8.48 8.492-8.478-8.492a6 6 0 0 1 8.48-8.464Zm6.826 1.641a3.998 3.998 0 0 0-5.49-.153l-1.335 1.198-1.336-1.197a4 4 0 0 0-5.686 5.605L12 18.654l7.02-7.03a4 4 0 0 0-.193-5.454Z" fill="#000"/></svg><svg fill="none" viewBox="0 0 24 24" id="id-card-line" xmlns="http://www.w3.org/2000/svg"><path d="M3 6h18v12H3V6ZM2 4a1 1 0 0 0-1 1v14a1 1 0 0 0 1 1h20a1 1 0 0 0 1-1V5a1 1 0 0 0-1-1H2Zm11 4h6v2h-6V8Zm5 4h-5v2h5v-2Zm-7.5-2a2.5 2.5 0 1 1-5 0 2.5 2.5 0 0 1 5 0ZM8 13.5A3.5 3.5 0 0 0 4.5 17h7A3.5 3.5 0 0 0 8 13.5Z" fill="#000"/></svg><svg fill="none" viewBox="0 0 16 16" id="linkedin" xmlns="http://www.w3.org/2000/svg"><path fill-rule="evenodd" clip-rule="evenodd" d="M16 16h-3.077v-5.603c0-1.537-.652-2.395-1.82-2.395-1.271 0-2.026.894-2.026 2.395V16H6V5.592h3.077v1.17S10.042 5 12.217 5C14.395 5 16 6.382 16 9.241V16ZM1.5 3a1.5 1.5 0 1 1 0-3 1.5 1.5 0 0 1 0 3ZM0 16h3V6H0v10Z" fill="#fff"/></svg><svg fill="none" viewBox="0 0 240 69" id="logo" xmlns="http://www.w3.org/2000/svg"><g clip-path="url(#ha)"><path d="M47.675 15.37V7.686c0-.848-.89-1.536-1.987-1.536h-1.986V1.54c0-.85-.89-1.537-1.986-1.537-2.813 0-7.12-.167-12.175 2.176-3.143-.724-5.365-.64-7.69-.64-1.096 0-1.986.688-1.986 1.537V6.15H17.88c-1.097 0-1.986.688-1.986 1.536v7.684c0 6.259 6.076 11.44 13.904 12.199v20.073c0 .849.89 1.537 1.987 1.537s1.986-.688 1.986-1.537v-5.378h2.98c6.024 0 10.925-3.792 10.925-8.453v-2.305c0-.848-.89-1.537-1.987-1.537h-4.966c-2.638 0-5.062.728-6.952 1.938v-4.34c7.816-.748 13.905-5.903 13.905-12.197Zm-3.973 0c0 2.735-1.563 5.205-4.034 6.899.039-.247.061-.497.061-.752 0-3.891-1.88-7.45-4.974-10.16 2.623-1.384 5.732-2.134 8.947-2.134v6.147ZM39.729 3.076V6.46c-.367.058-.731.124-1.093.197a19.545 19.545 0 0 0-4.363-2.835 20.075 20.075 0 0 1 5.456-.746ZM23.84 4.613c3.945 0 7.778 1.115 10.758 3.245a21.37 21.37 0 0 0-2.82 1.37c-2.309-1.344-5.007-2.307-7.939-2.77V4.614ZM19.864 15.37V9.223c8.763 0 15.891 5.515 15.891 12.294 0 1.718-1.833 3.117-4.077 3.072-6.978-.133-11.814-4.422-11.814-9.219Zm20.857 17.673h2.98v.768c0 2.966-3.119 5.38-6.952 5.38h-2.98v-.77c0-2.965 3.119-5.378 6.952-5.378Z" fill="#fff"/></g><path d="M68.805 26.885v3.159h-9.079v-3.159h9.08ZM61.19 13.009v17.035h-4.107V13.009h4.107Zm6.446 6.763v3.053h-7.909v-3.053h7.91Zm1.205-6.763v3.17h-9.114v-3.17h9.114Zm5.534 0 2.784 5.663 2.785-5.663h4.68l-4.75 8.447 4.878 8.588h-4.727l-2.866-5.768-2.866 5.768h-4.739l4.89-8.588-4.76-8.447h4.69ZM93.22 24.264h-4.235v-3.17h4.235c.577 0 1.045-.098 1.404-.293a1.78 1.78 0 0 0 .784-.807c.171-.351.257-.745.257-1.182 0-.468-.086-.9-.257-1.298a2.096 2.096 0 0 0-.784-.96c-.359-.25-.827-.374-1.404-.374H90.53v13.864h-4.106V13.009h6.797c1.365 0 2.539.25 3.521.75.991.498 1.751 1.185 2.282 2.058.53.866.795 1.857.795 2.972 0 1.1-.265 2.059-.795 2.878s-1.291 1.458-2.282 1.919c-.982.452-2.156.678-3.521.678Zm20.38 2.621v3.159h-8.611v-3.159h8.611Zm-7.149-13.876v17.035h-4.106V13.009h4.106Zm22.861 8.178v.69c0 1.303-.184 2.473-.55 3.51-.359 1.03-.87 1.911-1.533 2.645a6.796 6.796 0 0 1-2.351 1.672c-.905.383-1.904.574-2.996.574-1.099 0-2.105-.191-3.018-.573a6.898 6.898 0 0 1-2.363-1.673c-.663-.734-1.178-1.615-1.545-2.645-.358-1.037-.538-2.207-.538-3.51v-.69c0-1.302.18-2.472.538-3.51.367-1.037.878-1.918 1.533-2.644a6.594 6.594 0 0 1 2.352-1.673c.912-.39 1.918-.585 3.018-.585 1.092 0 2.09.195 2.995.585.913.383 1.7.94 2.363 1.673.663.726 1.178 1.607 1.545 2.644.366 1.038.55 2.208.55 3.51Zm-4.165.69v-.713c0-.843-.074-1.583-.223-2.223-.14-.647-.351-1.19-.631-1.626a2.806 2.806 0 0 0-2.434-1.322c-.546 0-1.022.113-1.427.339a2.72 2.72 0 0 0-1.018.983c-.273.436-.48.979-.62 1.626-.133.64-.199 1.38-.199 2.223v.714c0 .834.066 1.575.199 2.223.14.639.347 1.181.62 1.626.281.444.624.78 1.029 1.006.414.226.893.34 1.439.34.523 0 .987-.114 1.393-.34a2.796 2.796 0 0 0 1.018-1.006c.28-.445.491-.987.631-1.627.149-.647.223-1.388.223-2.222Zm6.609-8.868h6.704c1.31 0 2.449.195 3.416.585.967.39 1.712.968 2.235 1.732.53.764.795 1.708.795 2.831 0 .975-.152 1.79-.456 2.445a4.375 4.375 0 0 1-1.275 1.627 7.162 7.162 0 0 1-1.884 1.04l-1.345.761h-5.628l-.023-3.17h4.165c.523 0 .955-.094 1.299-.281.343-.187.6-.453.772-.796.179-.35.269-.768.269-1.252 0-.49-.09-.912-.269-1.263a1.854 1.854 0 0 0-.796-.807c-.343-.188-.768-.281-1.275-.281h-2.597v13.864h-4.107V13.009Zm9.325 17.035-3.768-7.535 4.353-.023 3.814 7.382v.176h-4.399Zm18.344-3.159v3.159h-9.079v-3.159h9.079Zm-7.616-13.876v17.035h-4.107V13.009h4.107Zm6.446 6.763v3.053h-7.909v-3.053h7.909Zm1.205-6.763v3.17h-9.114v-3.17h9.114Zm-98.015 19v17.035h-4.095V32.009h4.095Zm17.432 0v17.035h-4.095l-6.025-10.6v10.6H64.65V32.009h4.107l6.025 10.6v-10.6h4.095Zm8.446 17.035h-3.779l.024-3.159h3.755c.78 0 1.44-.187 1.978-.562.545-.374.959-.932 1.24-1.673.288-.748.433-1.669.433-2.76v-.738c0-.819-.082-1.536-.246-2.153-.156-.623-.39-1.142-.702-1.556a2.935 2.935 0 0 0-1.17-.947c-.46-.21-.99-.316-1.591-.316h-3.79v-3.17h3.79c1.154 0 2.211.198 3.17.596.968.39 1.802.952 2.504 1.685a7.464 7.464 0 0 1 1.638 2.585c.39.99.585 2.09.585 3.3v.713c0 1.201-.195 2.301-.585 3.3a7.551 7.551 0 0 1-1.626 2.585 7.334 7.334 0 0 1-2.492 1.685c-.952.39-1.997.585-3.136.585Zm-1.427-17.035v17.035H81.79V32.009h4.107Zm26.136 8.178v.69c0 1.303-.183 2.473-.55 3.51-.359 1.03-.869 1.911-1.532 2.645a6.79 6.79 0 0 1-2.352 1.673c-.905.382-1.903.573-2.995.573-1.1 0-2.106-.191-3.019-.573a6.915 6.915 0 0 1-2.363-1.673c-.663-.734-1.178-1.615-1.544-2.645-.359-1.037-.538-2.207-.538-3.51v-.69c0-1.302.179-2.472.538-3.51.366-1.037.877-1.918 1.532-2.644a6.593 6.593 0 0 1 2.352-1.673c.913-.39 1.919-.585 3.018-.585 1.092 0 2.091.195 2.996.585.912.383 1.7.94 2.363 1.673.663.726 1.178 1.607 1.544 2.644.367 1.038.55 2.208.55 3.51Zm-4.165.69v-.713c0-.843-.074-1.583-.222-2.223-.141-.647-.351-1.19-.632-1.626a2.784 2.784 0 0 0-1.041-.983 2.813 2.813 0 0 0-1.393-.34c-.545 0-1.021.114-1.427.34a2.727 2.727 0 0 0-1.018.983c-.273.437-.479.979-.62 1.626-.132.64-.199 1.38-.199 2.223v.714c0 .834.067 1.575.199 2.222.141.64.347 1.182.62 1.627.281.444.624.78 1.03 1.006.413.226.893.34 1.439.34.522 0 .987-.114 1.392-.34a2.789 2.789 0 0 0 1.018-1.006c.281-.445.491-.987.632-1.627.148-.647.222-1.388.222-2.222Zm20.836-8.868v17.035h-4.095l-6.025-10.6v10.6h-4.106V32.009h4.106l6.025 10.6v-10.6h4.095Zm14.636 13.876v3.159h-9.079v-3.159h9.079Zm-7.617-13.876v17.035h-4.106V32.009h4.106Zm6.447 6.763v3.053h-7.909v-3.053h7.909Zm1.205-6.763v3.17h-9.114v-3.17h9.114Zm10.739 12.507c0-.265-.039-.503-.117-.714a1.49 1.49 0 0 0-.433-.608c-.21-.187-.514-.374-.912-.562-.39-.194-.905-.397-1.544-.608-.749-.25-1.471-.53-2.165-.842a9.628 9.628 0 0 1-1.86-1.112 5.035 5.035 0 0 1-1.299-1.497c-.319-.577-.479-1.248-.479-2.013 0-.733.163-1.392.491-1.977a4.51 4.51 0 0 1 1.369-1.509c.593-.421 1.287-.741 2.082-.96a9.52 9.52 0 0 1 2.609-.339c1.248 0 2.348.219 3.3.656.959.428 1.708 1.04 2.246 1.836.546.788.819 1.72.819 2.796h-4.083c0-.428-.09-.807-.269-1.134a1.83 1.83 0 0 0-.784-.773c-.351-.187-.792-.28-1.322-.28-.515 0-.948.078-1.299.234-.351.156-.616.366-.795.632-.18.257-.27.542-.27.854 0 .257.071.49.211.702.148.202.355.393.62.573.273.18.601.35.983.515.39.163.827.323 1.31.48.905.288 1.708.611 2.41.97.71.351 1.307.753 1.79 1.205.492.445.862.952 1.112 1.521.257.57.386 1.213.386 1.93 0 .765-.148 1.444-.445 2.036a4.217 4.217 0 0 1-1.275 1.51c-.554.405-1.217.713-1.989.924-.772.21-1.634.316-2.585.316-.874 0-1.736-.11-2.586-.328a7.643 7.643 0 0 1-2.293-1.03 5.336 5.336 0 0 1-1.65-1.79c-.405-.733-.608-1.602-.608-2.608h4.118c0 .499.066.92.199 1.263.133.343.328.62.585.83.257.204.573.352.948.445.374.086.803.13 1.287.13.522 0 .943-.075 1.263-.223.32-.156.554-.359.702-.608a1.66 1.66 0 0 0 .222-.843Zm10.904-12.507v17.035h-4.095V32.009h4.095Zm10.634 3.58-4.153 13.455h-4.411l6.259-17.035h2.796l-.491 3.58Zm3.44 13.455-4.165-13.455-.539-3.58h2.832l6.294 17.035h-4.422Zm-.164-6.353v3.17h-8.74v-3.17h8.74Z" fill="#fff"/><defs><clipPath id="ha"><path fill="#fff" d="M0 0h63.568v49.179H0z"/></clipPath></defs></svg><svg fill="none" viewBox="0 0 25 52" id="logo@2x" xmlns="http://www.w3.org/2000/svg"><path d="M24.768 16.038V8.021c0-.886-.685-1.604-1.531-1.604h-1.532v-4.81c0-.886-.686-1.604-1.532-1.604-2.17 0-5.49-.174-9.39 2.27-2.424-.754-4.138-.667-5.93-.667-.846 0-1.532.718-1.532 1.604v3.207H1.789c-.846 0-1.532.718-1.532 1.604v8.017c0 6.531 4.686 11.938 10.724 12.73v20.946c0 .885.686 1.603 1.532 1.603s1.532-.718 1.532-1.603V44.1h2.298c4.646 0 8.425-3.956 8.425-8.82v-2.405c0-.885-.685-1.603-1.531-1.603h-3.83c-2.035 0-3.904.759-5.362 2.02v-4.527c6.028-.781 10.723-6.16 10.723-12.727Zm-3.063 0a9.806 9.806 0 0 1-3.112 7.2c.03-.258.048-.52.048-.785 0-4.061-1.45-7.774-3.837-10.602a11.85 11.85 0 0 1 6.9-2.227v6.414ZM18.64 3.21v3.53c-.283.06-.565.13-.843.207a15.517 15.517 0 0 0-3.365-2.959 11.75 11.75 0 0 1 4.208-.778ZM6.385 4.813c3.043 0 6 1.164 8.298 3.386-.759.41-1.486.888-2.175 1.43a14.94 14.94 0 0 0-6.123-2.89V4.813ZM3.321 16.04V9.623c6.758 0 12.256 5.755 12.256 12.829 0 1.792-1.414 3.252-3.145 3.206-5.382-.14-9.111-4.615-9.111-9.62Zm16.086 18.44h2.298v.803c0 3.094-2.406 5.612-5.362 5.612h-2.298v-.802c0-3.094 2.405-5.612 5.362-5.612Z" fill="#fff"/></svg><svg fill="none" viewBox="0 0 15 24" id="next" xmlns="http://www.w3.org/2000/svg"><path fill-rule="evenodd" clip-rule="evenodd" d="m8.604 12.14-7.5 7.499a2.5 2.5 0 1 0 3.536 3.535l9.305-9.305a2.5 2.5 0 0 0-.403-3.863L4.268.732A2.5 2.5 0 1 0 .732 4.268l7.872 7.871Z" fill="#020B20"/></svg><svg fill="none" viewBox="0 0 21 26" id="play" xmlns="http://www.w3.org/2000/svg"><path d="M.554.167v25.667L20.731 13 .554.167Z" fill="#000"/></svg><svg fill="none" viewBox="0 0 45 44" id="play_arrow" xmlns="http://www.w3.org/2000/svg"><g clip-path="url(#la)"><path d="M14.674 9.167v25.666L34.852 22 14.674 9.167Z" fill="#000"/></g><defs><clipPath id="la"><path fill="#fff" d="M0 0h44.023v44H0z"/></clipPath></defs></svg><svg fill="none" viewBox="0 0 15 24" id="prev" xmlns="http://www.w3.org/2000/svg"><path fill-rule="evenodd" clip-rule="evenodd" d="m6.073 12.14 7.5 7.499a2.5 2.5 0 1 1-3.536 3.535L.732 13.87a2.5 2.5 0 0 1 .404-3.863L10.409.732a2.5 2.5 0 0 1 3.536 3.536l-7.872 7.871Z" fill="#020B20"/></svg><svg fill="none" viewBox="0 0 19 18" id="search" xmlns="http://www.w3.org/2000/svg"><path d="M13.38 11h-.79l-.28-.27a6.471 6.471 0 0 0 1.57-4.23 6.5 6.5 0 1 0-6.5 6.5c1.61 0 3.09-.59 4.23-1.57l.27.28v.79l5 4.99L18.37 16l-4.99-5Zm-6 0c-2.49 0-4.5-2.01-4.5-4.5S4.89 2 7.38 2s4.5 2.01 4.5 4.5S9.87 11 7.38 11Z" fill="#fff"/></svg><svg fill="none" viewBox="0 0 24 24" id="search-line" xmlns="http://www.w3.org/2000/svg"><path d="m18.031 16.617 4.283 4.282-1.415 1.415-4.282-4.283A8.96 8.96 0 0 1 11 20c-4.968 0-9-4.032-9-9s4.032-9 9-9 9 4.032 9 9a8.96 8.96 0 0 1-1.969 5.617Zm-2.006-.742A6.977 6.977 0 0 0 18 11c0-3.867-3.133-7-7-7s-7 3.133-7 7 3.133 7 7 7a6.977 6.977 0 0 0 4.875-1.975l.15-.15Z" fill="#000"/></svg><svg fill="none" viewBox="0 0 19 18" id="search@2x" xmlns="http://www.w3.org/2000/svg"><path d="M13.38 11h-.79l-.28-.27a6.471 6.471 0 0 0 1.57-4.23 6.5 6.5 0 1 0-6.5 6.5c1.61 0 3.09-.59 4.23-1.57l.27.28v.79l5 4.99L18.37 16l-4.99-5Zm-6 0c-2.49 0-4.5-2.01-4.5-4.5S4.89 2 7.38 2s4.5 2.01 4.5 4.5S9.87 11 7.38 11Z" fill="#fff"/></svg><svg fill="none" viewBox="0 0 24 24" id="user" xmlns="http://www.w3.org/2000/svg"><path d="M18.559 19.549a7.003 7.003 0 0 0-13.118 0m13.118 0A9.976 9.976 0 0 0 22 12c0-5.523-4.477-10-10-10S2 6.477 2 12a9.977 9.977 0 0 0 3.441 7.549m13.118 0A9.961 9.961 0 0 1 12 22a9.961 9.961 0 0 1-6.559-2.451M15 9a3 3 0 1 1-6 0 3 3 0 0 1 6 0Z" stroke="#141718" stroke-width="1.5" stroke-linejoin="round"/></svg><svg fill="none" viewBox="0 0 24 24" id="user-star-line" xmlns="http://www.w3.org/2000/svg"><path d="M12 14v2a6 6 0 0 0-6 6H4a8 8 0 0 1 8-8Zm0-1c-3.315 0-6-2.685-6-6s2.685-6 6-6 6 2.685 6 6-2.685 6-6 6Zm0-2c2.21 0 4-1.79 4-4s-1.79-4-4-4-4 1.79-4 4 1.79 4 4 4Zm6 10.5-2.939 1.545.561-3.273-2.377-2.317 3.286-.477L18 14l1.47 2.977 3.285.478-2.377 2.318.56 3.272L18 21.5Z" fill="#000"/></svg><svg viewBox="0 0 497 497" id="website" xmlns="http://www.w3.org/2000/svg"><path d="M497 128.5v312c0 11.046-8.954 20-20 20H20c-11.046 0-20-8.954-20-20v-312z" fill="#faf8f8"/><path d="M290.498 294.5c0-23.196-18.804-42-42-42a41.823 41.823 0 0 0-19.482 4.782c-13.386 7.021-19.327 21.053-19.327 37.218 0 23.196 15.613 36.457 38.809 36.457 16.214 0 30.282-3.645 37.282-17.099a41.814 41.814 0 0 0 4.718-19.358z" fill="#dc4955"/><path d="M286.468 312.47c-6.73 14.21-21.2 24.03-37.97 24.03-23.2 0-42-18.8-42-42 0-16.77 9.82-31.24 24.03-37.97-2.59 5.45-4.03 11.54-4.03 17.97 0 23.2 18.8 42 42 42 6.43 0 12.52-1.44 17.97-4.03z" fill="#d82f3c"/><path d="M429.496 294.5c0-23.196-18.804-42-42-42a41.823 41.823 0 0 0-19.482 4.782c-13.386 7.021-19.327 21.053-19.327 37.218 0 23.196 15.613 36.457 38.809 36.457 16.214 0 30.282-3.645 37.282-17.099a41.814 41.814 0 0 0 4.718-19.358z" fill="#b7e546"/><path d="M425.466 312.47c-6.73 14.21-21.2 24.03-37.97 24.03-23.2 0-42-18.8-42-42 0-16.77 9.82-31.24 24.03-37.97-2.59 5.45-4.03 11.54-4.03 17.97 0 23.2 18.8 42 42 42 6.43 0 12.52-1.44 17.97-4.03z" fill="#abd641"/><path d="M497 148.5v-20l-276.011-12.798L0 128.5v312c0 11.046 8.954 20 20 20h15c-8.28 0-15-6.72-15-15v-291a6 6 0 0 1 6-6z" fill="#f0e9e6"/><path d="M497 56.5V129H0V56.5c0-11.046 8.954-20 20-20h457c11.046 0 20 8.954 20 20z" fill="#5d748a"/><g fill="#3f597d"><path d="M227.758 108.5c-8.255 0-14.947-6.716-14.947-15s6.692-15 14.947-15h208.315c8.255 0 14.947 6.716 14.947 15s-6.692 15-14.947 15z"/><ellipse cx="160.869" cy="93.5" rx="14.947" ry="15"/><path d="m171.361 104.184 12.874-12.869-13.139 1.179zM150.592 82.608l12.562-12.516-2.693 10.408z"/><ellipse cx="98.034" cy="93.5" rx="14.947" ry="15"/><path d="m108.553 104.157 12.382-12.499-12.674.836zM87.757 82.608l12.371-12.459L97.626 80.5z"/><ellipse cx="32.947" cy="93.5" rx="14.947" ry="15"/><path d="M43.769 103.846 56.49 90.66l-13.139 1.381zM22.67 82.608 34.292 70.57l-1.753 9.93z"/></g><ellipse cx="173.849" cy="80.5" fill="#b7e546" rx="14.947" ry="15"/><path d="m217.514 82.577 12.971-12.991-3.025 14.276zM446.83 103.915l13.149-13.179-10.185 3.381z" fill="#3f597d"/><ellipse cx="110.946" cy="80.5" fill="#ffbf54" rx="14.947" ry="15"/><ellipse cx="45.495" cy="80.5" fill="#dc4955" rx="14.947" ry="15"/><path d="M240.737 95.5c-8.255 0-14.947-6.716-14.947-15s6.692-15 14.947-15h208.315c8.255 0 14.947 6.716 14.947 15s-6.692 15-14.947 15z" fill="#faf8f8"/><path d="m135.893 215 226.628 2c5.523 0 10-4.477 10-10l3.479-7v-30c0-5.523-4.477-10-10-10H142l-6.107 5c-5.523 0-10 4.477-10 10v30c0 5.523 4.477 10 10 10z" fill="#aad8de"/><path d="M376 200v10c0 5.523-4.477 10-10 10H132c-5.523 0-10-4.477-10-10v-40c0-5.523 4.477-10 10-10h10v33a7 7 0 0 0 7 7z" fill="#94ccd4"/><path d="M151.5 294.5c0-23.196-18.804-42-42-42a41.823 41.823 0 0 0-19.482 4.782c-13.386 7.021-19.327 21.053-19.327 37.218 0 23.196 15.613 36.457 38.809 36.457 16.214 0 30.282-3.645 37.282-17.099A41.814 41.814 0 0 0 151.5 294.5z" fill="#ffbf54"/><path d="M147.47 312.47c-6.73 14.21-21.2 24.03-37.97 24.03-23.2 0-42-18.8-42-42 0-16.77 9.82-31.24 24.03-37.97-2.59 5.45-4.03 11.54-4.03 17.97 0 23.2 18.8 42 42 42 6.43 0 12.52-1.44 17.97-4.03z" fill="#ffa442"/><path d="M149.5 374h-70a7.5 7.5 0 0 1 0-15h70a7.5 7.5 0 0 1 0 15zM149.5 404h-80a7.5 7.5 0 0 1 0-15h80a7.5 7.5 0 0 1 0 15zM149.5 434h-80a7.5 7.5 0 0 1 0-15h80a7.5 7.5 0 0 1 0 15zM288.5 374h-70a7.5 7.5 0 0 1 0-15h70c4.143 0 7.5 3.358 7.5 7.5s-3.357 7.5-7.5 7.5zM288.5 404h-80a7.5 7.5 0 0 1 0-15h80c4.143 0 7.5 3.358 7.5 7.5s-3.357 7.5-7.5 7.5zM288.5 434h-80a7.5 7.5 0 0 1 0-15h80c4.143 0 7.5 3.358 7.5 7.5s-3.357 7.5-7.5 7.5zM427.5 374h-70c-4.143 0-7.5-3.358-7.5-7.5s3.357-7.5 7.5-7.5h70c4.143 0 7.5 3.358 7.5 7.5s-3.357 7.5-7.5 7.5zM427.5 404h-80c-4.143 0-7.5-3.358-7.5-7.5s3.357-7.5 7.5-7.5h80c4.143 0 7.5 3.358 7.5 7.5s-3.357 7.5-7.5 7.5zM427.5 434h-80c-4.143 0-7.5-3.358-7.5-7.5s3.357-7.5 7.5-7.5h80c4.143 0 7.5 3.358 7.5 7.5s-3.357 7.5-7.5 7.5z" fill="#f0e9e6"/></svg></svg>